<svg width="29" height="28" viewBox="0 0 29 28" fill="none" xmlns="http://www.w3.org/2000/svg">
<g id="arrow-back-up">
<path id="Vector (Stroke)" fill-rule="evenodd" clip-rule="evenodd" d="M11.825 5.00837C12.2807 5.46398 12.2807 6.20267 11.825 6.65828L9.15 9.33332H19.1667C20.7138 9.33332 22.1976 9.94791 23.2915 11.0419C24.3855 12.1358 25.0001 13.6196 25.0001 15.1667C25.0001 16.7138 24.3855 18.1975 23.2915 19.2914C22.1976 20.3854 20.7138 21 19.1667 21H18.0001C17.3557 21 16.8334 20.4777 16.8334 19.8333C16.8334 19.189 17.3557 18.6667 18.0001 18.6667H19.1667C20.095 18.6667 20.9852 18.2979 21.6416 17.6415C22.298 16.9852 22.6667 16.0949 22.6667 15.1667C22.6667 14.2384 22.298 13.3482 21.6416 12.6918C20.9852 12.0354 20.095 11.6667 19.1667 11.6667H9.15L11.825 14.3417C12.2807 14.7973 12.2807 15.536 11.825 15.9916C11.3694 16.4472 10.6307 16.4472 10.1751 15.9916L5.50846 11.3249C5.05285 10.8693 5.05285 10.1306 5.50846 9.67503L10.1751 5.00837C10.6307 4.55275 11.3694 4.55275 11.825 5.00837Z" fill="#43A1A7"/>
</g>
</svg>
