<svg width="380" height="58" viewBox="0 0 380 58" fill="none" xmlns="http://www.w3.org/2000/svg">
<path d="M248.74 58C248.458 58.0012 248.184 57.9074 247.966 57.735C247.741 57.5601 247.581 57.3198 247.509 57.05C247.474 56.9215 247.453 56.7898 247.448 56.657C247.44 56.509 247.44 56.366 247.44 56.215V1.78401C247.44 1.64001 247.44 1.49101 247.448 1.34201C247.454 1.209 247.474 1.07697 247.509 0.948007C247.581 0.678586 247.741 0.438696 247.966 0.264007C248.185 0.0931782 248.459 -4.57764e-05 248.741 -4.57764e-05C249.023 -4.57764e-05 249.296 0.0931782 249.515 0.264007C249.741 0.438696 249.901 0.678586 249.973 0.948007C250.012 1.07606 250.032 1.20864 250.033 1.34201C250.041 1.49001 250.041 1.64201 250.041 1.78401V56.215C250.041 56.366 250.041 56.509 250.033 56.657C250.032 56.7901 250.012 56.9224 249.973 57.05C249.901 57.3198 249.741 57.5601 249.515 57.735C249.296 57.9064 249.022 58 248.74 58ZM193.117 56C192.834 56.0041 192.559 55.91 192.342 55.735C192.117 55.5601 191.956 55.3198 191.885 55.05C191.851 54.9212 191.831 54.7896 191.824 54.657C191.817 54.509 191.817 54.357 191.817 54.215V3.78701C191.817 3.64101 191.817 3.48701 191.824 3.34201C191.827 3.20906 191.847 3.07698 191.885 2.94901C191.957 2.67959 192.117 2.4397 192.342 2.26501C192.559 2.08999 192.834 1.99592 193.117 2.00001C193.399 1.99995 193.672 2.09355 193.891 2.26501C194.116 2.44008 194.276 2.67982 194.349 2.94901C194.389 3.07643 194.409 3.20886 194.409 3.34201C194.416 3.49001 194.416 3.64201 194.416 3.78401V54.212C194.416 54.358 194.416 54.512 194.409 54.657C194.396 54.7889 194.376 54.9201 194.349 55.05C194.276 55.3196 194.116 55.5597 193.891 55.735C193.672 55.9062 193.399 55.9997 193.117 56ZM168.164 56C167.881 56.005 167.606 55.9108 167.39 55.735C167.165 55.5595 167.005 55.3194 166.933 55.05C166.899 54.9214 166.878 54.7897 166.872 54.657C166.865 54.509 166.865 54.357 166.865 54.215V3.78701C166.865 3.64101 166.865 3.48701 166.872 3.34201C166.878 3.20933 166.899 3.07764 166.933 2.94901C167.004 2.68024 167.162 2.44023 167.384 2.26401C167.602 2.08741 167.879 1.99351 168.164 2.00001C168.446 1.99995 168.72 2.09355 168.939 2.26501C169.164 2.4397 169.324 2.67959 169.396 2.94901C169.434 3.07697 169.454 3.20906 169.457 3.34201C169.464 3.49001 169.464 3.64201 169.464 3.78401V54.212C169.464 54.358 169.464 54.512 169.457 54.657C169.447 54.7894 169.427 54.9208 169.396 55.05C169.324 55.3198 169.164 55.5601 168.939 55.735C168.72 55.9059 168.446 55.9994 168.164 56ZM186.879 55C186.595 55.005 186.32 54.9108 186.104 54.735C185.88 54.5595 185.72 54.3194 185.648 54.05C185.613 53.9214 185.592 53.7897 185.586 53.657C185.579 53.509 185.579 53.366 185.579 53.215V4.78401C185.579 4.63901 185.579 4.49001 185.586 4.34101C185.593 4.20833 185.613 4.07664 185.648 3.94801C185.718 3.6796 185.876 3.43996 186.099 3.26401C186.316 3.08741 186.594 2.99351 186.879 3.00001C187.161 3.00027 187.434 3.09384 187.653 3.26501C187.878 3.4397 188.039 3.67959 188.111 3.94901C188.145 4.07765 188.165 4.20936 188.171 4.34201C188.178 4.49001 188.178 4.64201 188.178 4.78501V53.215C188.178 53.366 188.178 53.508 188.171 53.657C188.164 53.7896 188.144 53.9212 188.111 54.05C188.039 54.3198 187.878 54.5601 187.653 54.735C187.434 54.9062 187.161 54.9997 186.879 55ZM279.93 54C279.648 54.0032 279.373 53.9092 279.156 53.735C278.931 53.5594 278.771 53.3189 278.698 53.049C278.66 52.9216 278.64 52.7897 278.638 52.657C278.631 52.508 278.631 52.366 278.631 52.215V5.78701C278.631 5.64101 278.631 5.48701 278.638 5.34201C278.64 5.20867 278.66 5.07615 278.698 4.94801C278.77 4.67859 278.931 4.4387 279.156 4.26401C279.375 4.09265 279.648 3.99909 279.93 3.99909C280.213 3.99909 280.486 4.09265 280.705 4.26401C280.93 4.4387 281.09 4.67859 281.162 4.94801C281.197 5.07697 281.217 5.209 281.224 5.34201C281.231 5.49001 281.231 5.64201 281.231 5.78401V52.212C281.231 52.365 281.231 52.512 281.224 52.657C281.217 52.7894 281.197 52.9207 281.162 53.049C281.09 53.3189 280.93 53.5594 280.705 53.735C280.488 53.9099 280.213 54.0039 279.93 54ZM205.593 52.5C205.31 52.505 205.035 52.4108 204.818 52.235C204.594 52.0595 204.434 51.8194 204.362 51.55C204.327 51.4214 204.307 51.2897 204.301 51.157C204.293 51.009 204.293 50.857 204.293 50.715V7.28701C204.293 7.14101 204.293 6.98701 204.301 6.84201C204.307 6.70901 204.328 6.577 204.362 6.44801C204.433 6.1796 204.591 5.93996 204.813 5.76401C205.033 5.59391 205.306 5.5008 205.588 5.50001C205.87 5.49967 206.143 5.59291 206.362 5.76401C206.587 5.93908 206.747 6.17882 206.82 6.44801C206.853 6.57721 206.873 6.70914 206.88 6.84201C206.887 6.99001 206.887 7.14201 206.887 7.28401V50.712C206.887 50.858 206.887 51.012 206.88 51.157C206.876 51.2898 206.855 51.4216 206.82 51.55C206.748 51.8198 206.588 52.0601 206.362 52.235C206.145 52.4048 205.873 52.4983 205.593 52.5ZM161.926 49C161.643 49.0031 161.369 48.9092 161.152 48.735C160.926 48.5601 160.766 48.3198 160.694 48.05C160.66 47.9214 160.64 47.7897 160.634 47.657C160.628 47.509 160.628 47.366 160.628 47.215V10.787C160.628 10.641 160.628 10.487 160.634 10.341C160.639 10.208 160.66 10.0759 160.694 9.94701C160.766 9.67758 160.926 9.4377 161.152 9.26301C161.371 9.09334 161.644 9.00059 161.926 9.00001C162.208 8.99949 162.481 9.09276 162.7 9.26401C162.925 9.4387 163.085 9.67859 163.157 9.94801C163.192 10.0769 163.213 10.209 163.218 10.342C163.225 10.491 163.225 10.642 163.225 10.784V47.212C163.225 47.365 163.225 47.512 163.218 47.657C163.212 47.7897 163.192 47.9214 163.157 48.05C163.085 48.3198 162.925 48.5601 162.7 48.735C162.483 48.9096 162.209 49.0036 161.926 49ZM106.303 49C106.02 49.0031 105.745 48.9092 105.528 48.735C105.304 48.5597 105.143 48.3196 105.071 48.05C105.047 47.937 105.029 47.82 105.011 47.657C105.003 47.509 105.003 47.366 105.003 47.215V10.787C105.003 10.641 105.003 10.487 105.011 10.341C105.023 10.2087 105.044 10.0772 105.071 9.94701C105.143 9.67782 105.304 9.43808 105.528 9.26301C105.748 9.09334 106.021 9.00059 106.303 9.00001C106.585 8.99967 106.859 9.09291 107.077 9.26401C107.303 9.4387 107.463 9.67859 107.535 9.94801C107.568 10.0772 107.588 10.2091 107.595 10.342C107.602 10.491 107.602 10.642 107.602 10.784V47.215C107.602 47.366 107.602 47.509 107.595 47.657C107.589 47.7896 107.569 47.9213 107.535 48.05C107.463 48.3198 107.303 48.5601 107.077 48.735C106.859 48.9062 106.585 48.9997 106.303 49ZM223.787 47C223.505 47.0035 223.23 46.9095 223.013 46.735C222.788 46.5601 222.627 46.3198 222.555 46.05C222.516 45.9225 222.495 45.7901 222.495 45.657C222.488 45.509 222.488 45.357 222.488 45.215V12.787C222.488 12.641 222.488 12.487 222.495 12.342C222.495 12.2089 222.516 12.0765 222.555 11.949C222.627 11.6796 222.788 11.4397 223.013 11.265C223.23 11.0905 223.505 10.9965 223.787 11C224.069 10.9995 224.343 11.0932 224.561 11.265C224.786 11.4397 224.946 11.6796 225.018 11.949C225.053 12.0776 225.073 12.2093 225.08 12.342C225.087 12.49 225.087 12.642 225.087 12.784V45.212C225.087 45.358 225.087 45.512 225.08 45.657C225.073 45.7897 225.053 45.9214 225.018 46.05C224.947 46.3198 224.786 46.5601 224.561 46.735C224.345 46.9107 224.07 47.0049 223.787 47ZM174.402 46.5C174.12 46.4984 173.847 46.405 173.628 46.235C173.402 46.0601 173.242 45.8198 173.17 45.55C173.133 45.4221 173.112 45.29 173.11 45.157C173.103 45.009 173.103 44.866 173.103 44.715V13.287C173.103 13.141 173.103 12.987 173.11 12.842C173.116 12.709 173.136 12.577 173.17 12.448C173.242 12.1786 173.403 11.9387 173.628 11.764C173.847 11.594 174.12 11.5009 174.402 11.5C174.684 11.4997 174.958 11.5929 175.177 11.764C175.401 11.9391 175.562 12.1788 175.634 12.448C175.663 12.578 175.683 12.7096 175.695 12.842C175.702 12.99 175.702 13.142 175.702 13.284V44.715C175.702 44.866 175.702 45.009 175.695 45.157C175.683 45.2891 175.663 45.4204 175.634 45.55C175.562 45.8196 175.402 46.0597 175.177 46.235C174.958 46.4065 174.685 46.5001 174.402 46.5ZM230.026 46C229.743 46.0027 229.469 45.9088 229.252 45.735C229.027 45.5601 228.866 45.3198 228.795 45.05C228.759 44.9215 228.739 44.7898 228.733 44.657C228.726 44.509 228.726 44.366 228.726 44.215V13.787C228.726 13.641 228.726 13.487 228.733 13.341C228.739 13.2082 228.759 13.0765 228.795 12.948C228.866 12.6786 229.027 12.4387 229.252 12.264C229.468 12.0893 229.743 11.9955 230.026 12C230.308 12.0003 230.581 12.0938 230.8 12.265C231.025 12.4397 231.186 12.6796 231.258 12.949C231.297 13.0766 231.317 13.2089 231.318 13.342C231.325 13.491 231.325 13.642 231.325 13.785V44.212C231.325 44.365 231.325 44.512 231.318 44.657C231.317 44.7901 231.297 44.9224 231.258 45.05C231.186 45.3198 231.025 45.5601 230.8 45.735C230.581 45.9062 230.308 45.9997 230.026 46ZM125.017 46C124.734 46.0035 124.46 45.9095 124.243 45.735C124.018 45.5597 123.858 45.3196 123.785 45.05C123.758 44.9202 123.737 44.789 123.725 44.657C123.718 44.509 123.718 44.366 123.718 44.215V13.787C123.718 13.641 123.718 13.487 123.725 13.341C123.723 13.2078 123.743 13.0751 123.785 12.948C123.858 12.6788 124.018 12.4391 124.243 12.264C124.459 12.0888 124.734 11.995 125.017 12C125.299 12.0003 125.573 12.0938 125.792 12.265C126.017 12.4397 126.177 12.6796 126.249 12.949C126.284 13.0775 126.304 13.2093 126.31 13.342C126.317 13.491 126.317 13.642 126.317 13.785V44.215C126.317 44.366 126.317 44.508 126.31 44.657C126.304 44.7897 126.283 44.9214 126.249 45.05C126.178 45.3198 126.017 45.5601 125.792 45.735C125.573 45.9062 125.299 45.9997 125.017 46ZM112.541 46C112.258 46.0041 111.983 45.91 111.766 45.735C111.541 45.5601 111.381 45.3198 111.309 45.05C111.274 44.9215 111.254 44.7897 111.249 44.657C111.241 44.509 111.241 44.366 111.241 44.215V13.787C111.241 13.641 111.241 13.487 111.249 13.341C111.251 13.208 111.271 13.0759 111.309 12.948C111.381 12.6786 111.541 12.4387 111.766 12.264C111.983 12.0894 112.258 11.9956 112.541 12C112.823 12.0003 113.097 12.0938 113.316 12.265C113.54 12.4402 113.7 12.6799 113.772 12.949C113.807 13.0776 113.827 13.2093 113.833 13.342C113.841 13.491 113.841 13.642 113.841 13.785V44.212C113.841 44.365 113.841 44.512 113.833 44.657C113.827 44.7897 113.806 44.9213 113.772 45.05C113.7 45.3194 113.54 45.5595 113.316 45.735C113.097 45.9062 112.823 45.9997 112.541 46ZM242.502 45C242.219 45.0035 241.944 44.9095 241.727 44.735C241.502 44.5594 241.342 44.3189 241.27 44.049C241.231 43.9216 241.211 43.7897 241.209 43.657C241.202 43.508 241.202 43.366 241.202 43.215V14.787C241.202 14.641 241.202 14.487 241.209 14.342C241.21 14.2086 241.23 14.076 241.27 13.948C241.342 13.6786 241.502 13.4387 241.727 13.264C241.944 13.0899 242.219 12.9963 242.502 13C242.785 12.9948 243.06 13.089 243.275 13.265C243.5 13.4397 243.661 13.6796 243.733 13.949C243.767 14.078 243.788 14.21 243.794 14.343C243.801 14.491 243.801 14.643 243.801 14.785V43.212C243.801 43.365 243.801 43.512 243.794 43.657C243.788 43.7894 243.767 43.9207 243.733 44.049C243.661 44.3189 243.5 44.5594 243.275 44.735C243.06 44.911 242.785 45.0052 242.502 45ZM75.6321 44.5C75.3497 44.503 75.0755 44.409 74.8586 44.235C74.6334 44.0601 74.4729 43.8198 74.4012 43.55C74.3665 43.4214 74.3459 43.2897 74.3398 43.157C74.3325 43.009 74.3325 42.866 74.3325 42.715V15.284C74.3325 15.14 74.3325 14.991 74.3398 14.842C74.3465 14.709 74.367 14.577 74.4012 14.448C74.4731 14.1786 74.6336 13.9387 74.8586 13.764C75.0777 13.5932 75.3512 13.5 75.6332 13.5C75.9152 13.5 76.1887 13.5932 76.4078 13.764C76.6328 13.9387 76.7933 14.1786 76.8652 14.448C76.9096 14.5748 76.9301 14.7083 76.9255 14.842C76.9328 14.991 76.9328 15.142 76.9328 15.284V42.715C76.9328 42.866 76.9328 43.009 76.9255 43.157C76.9294 43.2904 76.909 43.4234 76.8652 43.55C76.7935 43.8198 76.633 44.0601 76.4078 44.235C76.1885 44.4064 75.9146 44.5 75.6321 44.5ZM131.255 44C130.973 43.9989 130.7 43.9054 130.481 43.735C130.256 43.5601 130.095 43.3198 130.023 43.05C129.988 42.922 129.968 42.7905 129.963 42.658C129.956 42.509 129.956 42.367 129.956 42.216V15.787C129.956 15.641 129.956 15.487 129.963 15.342C129.972 15.2094 129.993 15.0776 130.023 14.948C130.095 14.6786 130.256 14.4387 130.481 14.264C130.7 14.0939 130.973 14.0008 131.255 14C131.537 13.9997 131.811 14.0929 132.03 14.264C132.254 14.4392 132.414 14.6789 132.486 14.948C132.521 15.077 132.541 15.209 132.548 15.342C132.555 15.49 132.555 15.642 132.555 15.784V42.212C132.555 42.365 132.555 42.512 132.548 42.657C132.541 42.7894 132.521 42.9207 132.486 43.049C132.414 43.3184 132.254 43.5585 132.03 43.734C131.811 43.9061 131.538 44.0001 131.255 44ZM180.64 43.5C180.357 43.505 180.082 43.4108 179.866 43.235C179.641 43.0601 179.48 42.8198 179.408 42.55C179.374 42.4214 179.354 42.2897 179.348 42.157C179.342 42.009 179.342 41.857 179.342 41.715V16.287C179.342 16.141 179.342 15.987 179.348 15.841C179.354 15.708 179.374 15.576 179.408 15.447C179.481 15.1778 179.641 14.9381 179.866 14.763C180.085 14.5929 180.359 14.4998 180.64 14.499C180.922 14.4985 181.196 14.5918 181.414 14.763C181.639 14.9381 181.799 15.1778 181.871 15.447C181.906 15.576 181.926 15.708 181.933 15.841C181.939 15.99 181.939 16.141 181.939 16.283V41.712C181.939 41.858 181.939 42.012 181.933 42.157C181.927 42.2897 181.906 42.4214 181.871 42.55C181.8 42.8198 181.639 43.0601 181.414 43.235C181.198 43.4112 180.923 43.5055 180.64 43.5ZM100.065 43C99.7831 42.9987 99.5103 42.9053 99.2912 42.735C99.066 42.5601 98.9055 42.3198 98.8338 42.05C98.7995 41.9217 98.7789 41.7903 98.7724 41.658C98.7652 41.509 98.7652 41.366 98.7652 41.215V16.787C98.7652 16.641 98.7652 16.487 98.7714 16.342C98.7777 16.209 98.7983 16.077 98.8327 15.948C98.9047 15.6786 99.0651 15.4387 99.2902 15.264C99.5094 15.0934 99.7828 15.0002 100.065 15.0002C100.347 15.0002 100.62 15.0934 100.839 15.264C101.064 15.4387 101.225 15.6786 101.297 15.948C101.331 16.077 101.351 16.209 101.357 16.342C101.363 16.49 101.363 16.642 101.363 16.784V41.212C101.363 41.365 101.363 41.512 101.357 41.658C101.351 41.7903 101.331 41.9217 101.297 42.05C101.225 42.3198 101.065 42.5601 100.839 42.735C100.62 42.905 100.347 42.9984 100.065 43ZM304.363 42C304.081 41.9984 303.808 41.905 303.588 41.735C303.363 41.5601 303.203 41.3198 303.131 41.05C303.096 40.9215 303.076 40.7897 303.071 40.657C303.063 40.509 303.063 40.366 303.063 40.215V17.787C303.063 17.641 303.063 17.487 303.071 17.342C303.076 17.209 303.096 17.0769 303.131 16.948C303.203 16.6786 303.363 16.4387 303.588 16.264C303.808 16.094 304.081 16.0009 304.363 16C304.645 15.9997 304.919 16.0929 305.138 16.264C305.362 16.4392 305.522 16.6789 305.594 16.948C305.628 17.077 305.649 17.209 305.655 17.342C305.663 17.49 305.663 17.642 305.663 17.784V40.212C305.663 40.365 305.663 40.512 305.655 40.657C305.649 40.7897 305.629 40.9214 305.594 41.05C305.522 41.3194 305.362 41.5595 305.138 41.735C304.918 41.905 304.645 41.9984 304.363 42ZM286.169 41.5C285.887 41.499 285.614 41.4055 285.395 41.235C285.17 41.0601 285.009 40.8198 284.938 40.55C284.903 40.4214 284.882 40.2897 284.876 40.157C284.869 40.009 284.869 39.866 284.869 39.715V18.287C284.869 18.141 284.869 17.987 284.876 17.842C284.882 17.7093 284.903 17.5776 284.938 17.449C285.01 17.1796 285.17 16.9397 285.395 16.765C285.614 16.5939 285.887 16.5005 286.169 16.5005C286.451 16.5005 286.724 16.5939 286.943 16.765C287.168 16.9397 287.329 17.1796 287.401 17.449C287.439 17.5768 287.459 17.709 287.461 17.842C287.468 17.991 287.468 18.142 287.468 18.285V39.715C287.468 39.866 287.468 40.008 287.461 40.157C287.46 40.2901 287.439 40.4223 287.401 40.55C287.329 40.8198 287.168 41.0601 286.943 41.235C286.724 41.4062 286.451 41.4997 286.169 41.5ZM63.1559 40.5C62.8712 40.5056 62.594 40.4114 62.3761 40.235C62.1512 40.0594 61.9908 39.8189 61.9187 39.549C61.8828 39.421 61.8625 39.2895 61.8584 39.157C61.8511 39.008 61.8511 38.866 61.8511 38.715V19.287C61.8511 19.141 61.8511 18.987 61.8584 18.842C61.8595 18.7086 61.8798 18.576 61.9187 18.448C61.9907 18.1786 62.1511 17.9387 62.3761 17.764C62.5925 17.5884 62.8677 17.4943 63.1507 17.499C63.4329 17.4993 63.7063 17.5928 63.9253 17.764C64.1504 17.9387 64.3108 18.1786 64.3827 18.448C64.4137 18.5776 64.4339 18.7093 64.443 18.842C64.4503 18.99 64.4503 19.142 64.4503 19.284V38.712C64.4503 38.865 64.4503 39.012 64.443 39.157C64.4363 39.2893 64.4161 39.4205 64.3827 39.549C64.3106 39.8189 64.1503 40.0594 63.9253 40.235C63.7077 40.4051 63.4363 40.4986 63.1559 40.5ZM310.601 40C310.319 39.9997 310.046 39.9061 309.828 39.735C309.602 39.5601 309.442 39.3198 309.37 39.05C309.336 38.9214 309.315 38.7897 309.309 38.657C309.303 38.509 309.303 38.366 309.303 38.215V19.784C309.303 19.64 309.303 19.491 309.309 19.342C309.315 19.209 309.336 19.077 309.37 18.948C309.442 18.6786 309.603 18.4387 309.828 18.264C310.047 18.0934 310.32 18.0004 310.602 18.0004C310.883 18.0004 311.157 18.0934 311.376 18.264C311.601 18.4387 311.761 18.6786 311.833 18.948C311.867 19.077 311.888 19.209 311.895 19.342C311.901 19.491 311.901 19.642 311.901 19.784V38.215C311.901 38.366 311.901 38.509 311.895 38.657C311.888 38.7897 311.868 38.9214 311.833 39.05C311.761 39.3198 311.601 39.5601 311.376 39.735C311.157 39.9062 310.883 39.9997 310.601 40ZM267.454 40C267.172 39.999 266.9 39.9055 266.681 39.735C266.455 39.5601 266.295 39.3198 266.223 39.05C266.189 38.9214 266.168 38.7897 266.162 38.657C266.155 38.509 266.155 38.366 266.155 38.215V19.787C266.155 19.641 266.155 19.487 266.162 19.342C266.168 19.209 266.189 19.077 266.223 18.948C266.295 18.6786 266.456 18.4387 266.681 18.264C266.9 18.0934 267.173 18.0004 267.455 18.0004C267.737 18.0004 268.01 18.0934 268.229 18.264C268.454 18.4387 268.614 18.6786 268.686 18.948C268.725 19.0761 268.745 19.2087 268.747 19.342C268.754 19.491 268.754 19.642 268.754 19.784V38.212C268.754 38.365 268.754 38.512 268.747 38.657C268.746 38.7901 268.725 38.9224 268.686 39.05C268.615 39.3198 268.454 39.5601 268.229 39.735C268.01 39.9062 267.736 39.9997 267.454 40ZM254.978 40C254.696 40.0004 254.422 39.9068 254.203 39.735C253.978 39.5601 253.818 39.3198 253.746 39.05C253.711 38.9215 253.691 38.7897 253.686 38.657C253.678 38.509 253.678 38.366 253.678 38.215V19.787C253.678 19.641 253.678 19.487 253.686 19.342C253.691 19.2089 253.711 19.0768 253.746 18.948C253.818 18.6786 253.978 18.4387 254.203 18.264C254.423 18.094 254.696 18.0009 254.978 18C255.26 17.9997 255.534 18.0929 255.753 18.264C255.978 18.4387 256.138 18.6786 256.21 18.948C256.244 19.0769 256.265 19.209 256.27 19.342C256.278 19.491 256.278 19.642 256.278 19.784V38.212C256.278 38.365 256.278 38.512 256.27 38.657C256.265 38.7897 256.245 38.9215 256.21 39.05C256.138 39.3198 255.978 39.5601 255.753 39.735C255.534 39.9062 255.26 39.9997 254.978 40ZM211.831 39.5C211.549 39.4989 211.276 39.4054 211.056 39.235C210.831 39.0601 210.671 38.8198 210.599 38.55C210.568 38.4212 210.547 38.2901 210.539 38.158C210.531 38.009 210.531 37.867 210.531 37.716V20.284C210.531 20.139 210.531 19.99 210.539 19.842C210.545 19.709 210.565 19.577 210.599 19.448C210.671 19.1786 210.831 18.9387 211.056 18.764C211.276 18.5939 211.549 18.5008 211.831 18.5C212.113 18.4997 212.387 18.5929 212.606 18.764C212.83 18.9391 212.991 19.1788 213.063 19.448C213.102 19.5761 213.122 19.7086 213.123 19.842C213.131 19.99 213.131 20.142 213.131 20.284V37.715C213.131 37.866 213.131 38.008 213.123 38.157C213.112 38.2888 213.092 38.4198 213.063 38.549C212.991 38.8186 212.83 39.0587 212.606 39.234C212.387 39.4061 212.113 39.5001 211.831 39.5ZM316.839 39C316.557 38.9998 316.284 38.9062 316.065 38.735C315.84 38.5597 315.68 38.3196 315.607 38.05C315.576 37.9208 315.556 37.7894 315.547 37.657C315.54 37.509 315.54 37.357 315.54 37.215V20.787C315.54 20.641 315.54 20.487 315.547 20.341C315.557 20.2084 315.577 20.0767 315.607 19.947C315.68 19.6778 315.84 19.4381 316.065 19.263C316.284 19.0933 316.558 19.0006 316.839 19C317.121 18.9997 317.395 19.0929 317.614 19.264C317.838 19.4391 317.999 19.6788 318.071 19.948C318.104 20.0772 318.125 20.2091 318.132 20.342C318.139 20.491 318.139 20.642 318.139 20.784V37.212C318.139 37.358 318.139 37.512 318.132 37.657C318.125 37.7896 318.105 37.9212 318.071 38.05C318 38.3198 317.839 38.5601 317.614 38.735C317.395 38.9062 317.121 38.9997 316.839 39ZM236.264 39C235.981 39.0035 235.706 38.9095 235.489 38.735C235.264 38.5601 235.103 38.3198 235.032 38.05C234.996 37.9216 234.976 37.7898 234.971 37.657C234.964 37.509 234.964 37.357 234.964 37.215V20.784C234.964 20.64 234.964 20.491 234.971 20.342C234.978 20.2091 234.998 20.0771 235.032 19.948C235.104 19.6788 235.264 19.4391 235.489 19.264C235.709 19.0939 235.982 19.0008 236.264 19C236.546 18.9997 236.819 19.0929 237.038 19.264C237.263 19.4391 237.423 19.6788 237.496 19.948C237.528 20.0773 237.549 20.2092 237.556 20.342C237.563 20.491 237.563 20.642 237.563 20.784V37.215C237.563 37.36 237.563 37.509 237.556 37.657C237.549 37.7896 237.529 37.9212 237.496 38.05C237.424 38.3198 237.263 38.5601 237.038 38.735C236.819 38.9062 236.546 38.9997 236.264 39ZM118.779 39C118.496 39.0046 118.222 38.9104 118.006 38.735C117.78 38.5601 117.62 38.3198 117.548 38.05C117.514 37.9213 117.493 37.7897 117.487 37.657C117.481 37.509 117.481 37.357 117.481 37.215V20.787C117.481 20.641 117.481 20.487 117.487 20.341C117.493 20.208 117.514 20.076 117.548 19.947C117.621 19.6778 117.781 19.4381 118.006 19.263C118.225 19.0922 118.498 18.999 118.78 18.999C119.062 18.999 119.336 19.0922 119.555 19.263C119.779 19.4381 119.94 19.6778 120.012 19.947C120.046 20.0761 120.066 20.2081 120.072 20.341C120.079 20.49 120.079 20.641 120.079 20.783V37.212C120.079 37.358 120.079 37.512 120.072 37.657C120.066 37.7896 120.046 37.9213 120.012 38.05C119.94 38.3198 119.78 38.5601 119.555 38.735C119.335 38.9061 119.062 38.9996 118.779 39ZM56.9178 39C56.6352 39.0042 56.3605 38.9101 56.1443 38.735C55.919 38.5601 55.7586 38.3198 55.6868 38.05C55.6529 37.9213 55.6327 37.7896 55.6265 37.657C55.6192 37.509 55.6192 37.357 55.6192 37.215V20.787C55.6192 20.641 55.6192 20.487 55.6265 20.341C55.6326 20.208 55.6529 20.076 55.6868 19.947C55.7593 19.6778 55.9197 19.4381 56.1443 19.263C56.3633 19.0922 56.6368 18.999 56.9188 18.999C57.2009 18.999 57.4743 19.0922 57.6934 19.263C57.918 19.4381 58.0784 19.6778 58.1509 19.947C58.1957 20.0737 58.2162 20.2072 58.2112 20.341C58.2184 20.49 58.2184 20.641 58.2184 20.783V37.212C58.2184 37.358 58.2184 37.512 58.2112 37.657C58.2156 37.7904 58.1952 37.9235 58.1509 38.05C58.0791 38.3198 57.9187 38.5601 57.6934 38.735C57.4742 38.9064 57.2003 39 56.9178 39ZM88.1084 38.5C87.8265 38.4984 87.5535 38.405 87.3338 38.235C87.1085 38.0601 86.948 37.8198 86.8764 37.55C86.8333 37.4236 86.813 37.291 86.8161 37.158C86.8088 37.009 86.8088 36.867 86.8088 36.715V21.284C86.8088 21.139 86.8088 20.99 86.8161 20.842C86.8123 20.7083 86.8327 20.575 86.8764 20.448C86.9483 20.1786 87.1087 19.9387 87.3338 19.764C87.5534 19.594 87.8265 19.5009 88.1084 19.5C88.3902 19.4995 88.6635 19.5928 88.8819 19.764C89.107 19.9387 89.2674 20.1786 89.3394 20.448C89.3735 20.577 89.3937 20.709 89.3997 20.842C89.4069 20.99 89.4069 21.142 89.4069 21.284V36.714C89.4069 36.865 89.4069 37.008 89.3997 37.157C89.3935 37.2893 89.3733 37.4207 89.3394 37.549C89.2676 37.8188 89.1072 38.0591 88.8819 38.234C88.663 38.4046 88.3901 38.4984 88.1084 38.5ZM218.069 38C217.786 38.0035 217.512 37.9095 217.295 37.735C217.069 37.5601 216.909 37.3198 216.837 37.05C216.803 36.9214 216.783 36.7897 216.777 36.657C216.771 36.509 216.771 36.357 216.771 36.215V21.787C216.771 21.641 216.771 21.487 216.777 21.342C216.783 21.2093 216.803 21.0776 216.837 20.949C216.909 20.6796 217.069 20.4397 217.295 20.265C217.512 20.0905 217.786 19.9965 218.069 20C218.351 19.9995 218.624 20.0932 218.843 20.265C219.068 20.4397 219.228 20.6796 219.3 20.949C219.335 21.0776 219.355 21.2093 219.361 21.342C219.368 21.491 219.368 21.642 219.368 21.784V36.212C219.368 36.358 219.368 36.512 219.361 36.657C219.355 36.7897 219.335 36.9214 219.3 37.05C219.228 37.3198 219.068 37.5601 218.843 37.735C218.626 37.9099 218.352 38.0039 218.069 38ZM199.355 37.5C199.073 37.4984 198.8 37.405 198.58 37.235C198.355 37.0601 198.194 36.8198 198.123 36.55C198.088 36.4215 198.068 36.2897 198.062 36.157C198.056 36.009 198.056 35.857 198.056 35.715V22.284C198.056 22.139 198.056 21.99 198.062 21.842C198.068 21.709 198.088 21.5768 198.123 21.448C198.195 21.1786 198.355 20.9387 198.58 20.764C198.8 20.594 199.073 20.5009 199.355 20.5C199.637 20.4995 199.91 20.5928 200.128 20.764C200.353 20.9387 200.514 21.1786 200.586 21.448C200.62 21.577 200.641 21.709 200.647 21.842C200.653 21.99 200.653 22.142 200.653 22.284V35.715C200.653 35.86 200.653 36.009 200.647 36.157C200.641 36.2897 200.621 36.4215 200.586 36.55C200.514 36.8198 200.354 37.0601 200.128 37.235C199.909 37.4053 199.636 37.4987 199.355 37.5ZM44.4416 37.5C44.1579 37.4995 43.8828 37.406 43.6618 37.235C43.4366 37.0601 43.2761 36.8198 43.2043 36.55C43.1683 36.4217 43.148 36.2898 43.144 36.157C43.1368 36.009 43.1368 35.857 43.1368 35.715V22.284C43.1368 22.139 43.1368 21.99 43.144 21.842C43.1483 21.7089 43.1686 21.5767 43.2043 21.448C43.2763 21.1786 43.4367 20.9387 43.6618 20.764C43.8813 20.594 44.1545 20.5009 44.4364 20.5C44.7184 20.4997 44.992 20.5929 45.2109 20.764C45.436 20.9387 45.5964 21.1786 45.6684 21.448C45.7023 21.577 45.7225 21.709 45.7287 21.842C45.736 21.99 45.736 22.142 45.736 22.284V35.715C45.736 35.86 45.736 36.009 45.7287 36.157C45.7182 36.2892 45.698 36.4205 45.6684 36.55C45.5966 36.8198 45.4362 37.0601 45.2109 37.235C44.9927 37.4039 44.7217 37.4973 44.4416 37.5ZM261.216 37C260.933 37.0032 260.659 36.9092 260.442 36.735C260.216 36.5601 260.056 36.3198 259.984 36.05C259.945 35.9223 259.925 35.79 259.924 35.657C259.916 35.509 259.916 35.357 259.916 35.215V22.784C259.916 22.639 259.916 22.49 259.924 22.341C259.925 22.208 259.945 22.0757 259.984 21.948C260.056 21.6786 260.216 21.4387 260.442 21.264C260.66 21.0927 260.934 20.9991 261.216 20.9991C261.498 20.9991 261.772 21.0927 261.991 21.264C262.216 21.4387 262.376 21.6786 262.448 21.948C262.483 22.0766 262.503 22.2083 262.509 22.341C262.517 22.49 262.517 22.641 262.517 22.784V35.215C262.517 35.359 262.517 35.508 262.509 35.657C262.503 35.7897 262.483 35.9214 262.448 36.05C262.376 36.3198 262.216 36.5601 261.991 36.735C261.774 36.9095 261.499 37.0036 261.216 37ZM143.732 37C143.449 37.005 143.173 36.9108 142.957 36.735C142.732 36.5597 142.572 36.3196 142.5 36.05C142.471 35.9203 142.451 35.7891 142.439 35.657C142.432 35.509 142.432 35.357 142.432 35.215V22.787C142.432 22.641 142.432 22.487 142.439 22.342C142.437 22.2087 142.458 22.076 142.5 21.949C142.572 21.6798 142.732 21.4401 142.957 21.265C143.173 21.0892 143.449 20.995 143.732 21C144.014 21.0003 144.287 21.0938 144.506 21.265C144.731 21.4397 144.892 21.6796 144.964 21.949C144.991 22.0471 145.008 22.1476 145.015 22.249V22.343C145.022 22.496 145.022 22.643 145.022 22.79V35.212C145.022 35.358 145.022 35.512 145.015 35.657V35.673C145.011 35.8005 144.992 35.9271 144.956 36.05C144.885 36.3198 144.724 36.5601 144.499 36.735C144.282 36.9047 144.011 36.9981 143.732 37ZM323.077 36.5C322.796 36.4984 322.522 36.405 322.303 36.235C322.078 36.0603 321.917 35.8204 321.845 35.551C321.811 35.422 321.791 35.29 321.785 35.157C321.778 35.009 321.778 34.857 321.778 34.715V23.284C321.778 23.139 321.778 22.99 321.785 22.842C321.792 22.7091 321.812 22.5771 321.845 22.448C321.917 22.1786 322.078 21.9387 322.303 21.764C322.522 21.594 322.796 21.5009 323.077 21.5C323.36 21.4993 323.633 21.5926 323.852 21.764C324.076 21.9392 324.236 22.1789 324.308 22.448C324.343 22.577 324.363 22.709 324.37 22.842C324.377 22.99 324.377 23.142 324.377 23.284V34.715C324.377 34.86 324.377 35.009 324.37 35.157C324.364 35.29 324.343 35.4221 324.308 35.551C324.236 35.8201 324.076 36.0598 323.852 36.235C323.632 36.405 323.359 36.4984 323.077 36.5ZM329.315 35C329.034 34.999 328.761 34.9055 328.542 34.735C328.317 34.5603 328.156 34.3204 328.085 34.051C328.05 33.9224 328.03 33.7907 328.023 33.658C328.017 33.509 328.017 33.358 328.017 33.216V24.787C328.017 24.641 328.017 24.487 328.023 24.342C328.029 24.209 328.05 24.0769 328.085 23.948C328.156 23.6786 328.317 23.4387 328.542 23.264C328.761 23.0934 329.034 23.0004 329.316 23.0004C329.598 23.0004 329.871 23.0934 330.09 23.264C330.315 23.4389 330.476 23.6787 330.549 23.948C330.579 24.0777 330.598 24.2094 330.607 24.342C330.615 24.478 330.615 24.614 330.615 24.742V33.249C330.615 33.38 330.615 33.516 330.607 33.649C330.598 33.7813 330.579 33.9127 330.549 34.042C330.476 34.3113 330.315 34.5511 330.09 34.726C329.873 34.901 329.599 34.9979 329.315 35ZM273.692 35C273.41 34.9989 273.137 34.9054 272.918 34.735C272.693 34.5603 272.532 34.3204 272.46 34.051C272.427 33.9221 272.407 33.7905 272.4 33.658C272.393 33.509 272.393 33.358 272.393 33.216V24.784C272.393 24.639 272.393 24.49 272.4 24.342C272.406 24.209 272.426 24.077 272.46 23.948C272.532 23.6786 272.693 23.4387 272.918 23.264C273.137 23.0939 273.41 23.0008 273.692 23C273.974 22.9997 274.248 23.0929 274.467 23.264C274.692 23.4387 274.852 23.6786 274.924 23.948C274.959 24.0769 274.979 24.209 274.985 24.342C274.992 24.49 274.992 24.642 274.992 24.784V33.215C274.992 33.359 274.992 33.508 274.985 33.657C274.979 33.7897 274.958 33.9214 274.924 34.05C274.852 34.3194 274.692 34.5593 274.467 34.734C274.248 34.9061 273.975 35.0001 273.692 35ZM137.493 35C137.212 34.999 136.939 34.9055 136.72 34.735C136.495 34.5603 136.334 34.3204 136.262 34.051C136.228 33.9224 136.208 33.7907 136.201 33.658C136.195 33.509 136.195 33.358 136.195 33.216V24.784C136.195 24.639 136.195 24.49 136.201 24.342C136.207 24.209 136.228 24.077 136.262 23.948C136.334 23.6786 136.495 23.4387 136.72 23.264C136.939 23.0932 137.212 23 137.495 23C137.777 23 138.05 23.0932 138.269 23.264C138.494 23.4387 138.655 23.6786 138.727 23.948C138.761 24.077 138.782 24.209 138.788 24.342C138.794 24.49 138.794 24.642 138.794 24.784V33.215C138.794 33.359 138.794 33.508 138.788 33.657C138.782 33.7897 138.761 33.9214 138.727 34.05C138.655 34.3194 138.494 34.5593 138.269 34.734C138.05 34.9063 137.776 35.0003 137.493 35ZM81.8703 35C81.5865 35 81.3113 34.9065 81.0905 34.735C80.8654 34.5603 80.705 34.3204 80.633 34.051C80.596 33.9229 80.5758 33.7909 80.5727 33.658C80.5655 33.509 80.5655 33.358 80.5655 33.216V24.787C80.5655 24.641 80.5655 24.487 80.5727 24.342C80.576 24.2088 80.5963 24.0765 80.633 23.948C80.705 23.6786 80.8654 23.4387 81.0905 23.264C81.3114 23.0928 81.5866 22.9997 81.8703 23C82.1523 22.9997 82.4259 23.0929 82.6448 23.264C82.8699 23.4387 83.0303 23.6786 83.1023 23.948C83.1369 24.0769 83.1571 24.209 83.1626 24.342C83.1699 24.49 83.1699 24.642 83.1699 24.784V33.212C83.1699 33.358 83.1699 33.512 83.1626 33.657C83.1521 33.7892 83.1319 33.9205 83.1023 34.05C83.0303 34.3194 82.8699 34.5593 82.6448 34.734C82.4264 34.9061 82.1527 35.0001 81.8703 35ZM292.407 34C292.125 33.9984 291.852 33.905 291.632 33.735C291.407 33.5603 291.247 33.3204 291.175 33.051C291.141 32.9223 291.12 32.7906 291.114 32.658C291.107 32.509 291.107 32.358 291.107 32.215V25.787C291.107 25.641 291.107 25.487 291.114 25.342C291.12 25.209 291.14 25.0769 291.175 24.948C291.247 24.6786 291.407 24.4387 291.632 24.264C291.852 24.0939 292.125 24.0008 292.407 24C292.689 23.9997 292.962 24.0929 293.181 24.264C293.406 24.4387 293.567 24.6786 293.639 24.948C293.673 25.077 293.693 25.209 293.699 25.342C293.706 25.49 293.706 25.642 293.706 25.784V32.212C293.706 32.358 293.706 32.512 293.699 32.658C293.694 32.7907 293.673 32.9225 293.639 33.051C293.567 33.3204 293.406 33.5603 293.181 33.735C292.962 33.9065 292.689 34.0001 292.407 34ZM149.97 34C149.688 33.9984 149.415 33.905 149.195 33.735C148.97 33.5603 148.81 33.3204 148.738 33.051C148.705 32.922 148.685 32.7905 148.677 32.658C148.67 32.509 148.67 32.358 148.67 32.215V25.785C148.67 25.64 148.67 25.491 148.677 25.343C148.683 25.21 148.704 25.078 148.738 24.949C148.81 24.6796 148.97 24.4397 149.195 24.265C149.415 24.0946 149.688 24.0012 149.97 24C150.252 23.9997 150.525 24.0929 150.744 24.264C150.968 24.4392 151.128 24.6789 151.201 24.948C151.236 25.0768 151.256 25.2089 151.262 25.342C151.269 25.49 151.269 25.642 151.269 25.784V32.214C151.269 32.359 151.269 32.508 151.262 32.657C151.256 32.7897 151.235 32.9214 151.201 33.05C151.128 33.3191 150.968 33.5588 150.744 33.734C150.526 33.9058 150.252 33.9998 149.97 34ZM348.03 33C347.748 32.9988 347.475 32.9053 347.256 32.735C347.031 32.5608 346.87 32.3207 346.798 32.051C346.764 31.922 346.744 31.79 346.739 31.657C346.731 31.531 346.731 31.403 346.731 31.28V26.721C346.731 26.597 346.731 26.468 346.739 26.342C346.744 26.2091 346.764 26.077 346.798 25.948C346.871 25.6787 347.031 25.4389 347.256 25.264C347.475 25.0936 347.749 25.0006 348.03 25.0006C348.312 25.0006 348.585 25.0936 348.804 25.264C349.029 25.4389 349.19 25.6787 349.263 25.948C349.294 26.0776 349.313 26.2093 349.321 26.342C349.329 26.476 349.329 26.613 349.329 26.742V31.249C349.329 31.382 349.329 31.519 349.321 31.649C349.313 31.7817 349.294 31.9135 349.263 32.043C349.191 32.3128 349.03 32.5529 348.804 32.727C348.587 32.9013 348.313 32.9978 348.03 33ZM341.792 33C341.51 32.9998 341.236 32.9062 341.017 32.735C340.791 32.5611 340.63 32.3209 340.559 32.051C340.525 31.922 340.506 31.7899 340.5 31.657C340.492 31.521 340.492 31.385 340.492 31.257V26.747C340.492 26.615 340.492 26.478 340.5 26.342C340.506 26.2091 340.525 26.0771 340.559 25.948C340.632 25.679 340.793 25.4394 341.017 25.264C341.236 25.0935 341.51 25.0005 341.792 25.0005C342.074 25.0005 342.347 25.0935 342.566 25.264C342.791 25.4395 342.951 25.6791 343.025 25.948C343.054 26.0778 343.074 26.2095 343.083 26.342C343.091 26.477 343.091 26.614 343.091 26.747V31.252C343.091 31.384 343.091 31.521 343.083 31.652C343.074 31.7846 343.055 31.9163 343.025 32.046C342.952 32.3153 342.791 32.5551 342.566 32.73C342.348 32.9033 342.075 32.9987 341.792 33ZM298.125 33C297.843 32.9984 297.57 32.905 297.35 32.735C297.126 32.5599 296.965 32.3202 296.893 32.051C296.863 31.9213 296.842 31.7896 296.833 31.657C296.825 31.509 296.825 31.357 296.825 31.215V26.784C296.825 26.639 296.825 26.49 296.833 26.342C296.843 26.2095 296.863 26.0778 296.893 25.948C296.965 25.6788 297.126 25.4391 297.35 25.264C297.57 25.094 297.843 25.0009 298.125 25C298.407 24.9997 298.681 25.0929 298.899 25.264C299.125 25.4387 299.285 25.6786 299.357 25.948C299.39 26.0773 299.41 26.2092 299.417 26.342C299.425 26.49 299.425 26.642 299.425 26.784V31.215C299.425 31.36 299.425 31.509 299.417 31.657C299.412 31.79 299.392 31.9221 299.357 32.051C299.285 32.3204 299.125 32.5603 298.899 32.735C298.68 32.905 298.407 32.9984 298.125 33ZM69.394 33C69.1121 32.9984 68.8391 32.905 68.6195 32.735C68.3944 32.5603 68.234 32.3204 68.162 32.051C68.1176 31.9242 68.0972 31.7908 68.1017 31.657C68.0944 31.509 68.0944 31.357 68.0944 31.215V26.787C68.0944 26.641 68.0944 26.487 68.1017 26.342C68.0975 26.2083 68.118 26.0749 68.162 25.948C68.234 25.6786 68.3944 25.4387 68.6195 25.264C68.839 25.094 69.1122 25.0009 69.394 25C69.6758 24.9995 69.9491 25.0928 70.1676 25.264C70.3926 25.4387 70.5531 25.6786 70.625 25.948C70.659 26.077 70.6792 26.209 70.6853 26.342C70.6926 26.49 70.6926 26.642 70.6926 26.784V31.212C70.6926 31.358 70.6926 31.512 70.6853 31.657C70.6792 31.79 70.659 31.922 70.625 32.051C70.5531 32.3204 70.3926 32.5603 70.1676 32.735C69.9485 32.9053 69.6757 32.9987 69.394 33ZM50.6797 33C50.3978 32.9984 50.1248 32.905 49.9051 32.735C49.68 32.5603 49.5196 32.3204 49.4477 32.051C49.4032 31.9242 49.3828 31.7908 49.3874 31.657C49.3874 31.522 49.3801 31.17 49.3801 30.716V26.787C49.3801 26.641 49.3801 26.487 49.3874 26.342C49.3832 26.2083 49.4036 26.0749 49.4477 25.948C49.5196 25.6786 49.68 25.4387 49.9051 25.264C50.1247 25.094 50.3978 25.0009 50.6797 25C50.9615 24.9995 51.2348 25.0928 51.4532 25.264C51.6783 25.4387 51.8387 25.6786 51.9107 25.948C51.9446 26.077 51.9648 26.209 51.971 26.342C51.9783 26.49 51.9783 26.642 51.9783 26.784V30.712C51.9783 31.023 51.9783 31.367 51.971 31.657C51.9648 31.79 51.9446 31.922 51.9107 32.051C51.8387 32.3204 51.6783 32.5603 51.4532 32.735C51.2341 32.9053 50.9613 32.9987 50.6797 33ZM156.208 32C155.926 31.9984 155.653 31.9046 155.434 31.734C155.209 31.5593 155.049 31.3194 154.977 31.05C154.943 30.921 154.922 30.789 154.915 30.656C154.909 30.508 154.909 30.356 154.909 30.214V27.787C154.909 27.641 154.909 27.487 154.915 27.342C154.922 27.209 154.943 27.077 154.977 26.948C155.049 26.6786 155.209 26.4387 155.434 26.264C155.653 26.0934 155.927 26.0002 156.209 26.0002C156.491 26.0002 156.764 26.0934 156.983 26.264C157.208 26.4387 157.369 26.6786 157.441 26.948C157.475 27.077 157.496 27.209 157.502 27.342C157.508 27.49 157.508 27.642 157.508 27.784V30.212C157.508 30.358 157.508 30.512 157.502 30.657C157.496 30.79 157.475 30.922 157.441 31.051C157.369 31.3204 157.208 31.5603 156.983 31.735C156.763 31.9052 156.49 31.9986 156.208 32ZM38.2035 32C37.9217 31.9984 37.6489 31.9046 37.4299 31.734C37.2049 31.5593 37.0444 31.3194 36.9725 31.05C36.9384 30.921 36.9182 30.789 36.9122 30.656C36.9049 30.508 36.9049 30.356 36.9049 30.214V27.787C36.9049 27.641 36.9049 27.487 36.9122 27.342C36.9182 27.209 36.9384 27.077 36.9725 26.948C37.0444 26.6786 37.2049 26.4387 37.4299 26.264C37.6491 26.0934 37.9225 26.0002 38.2045 26.0002C38.4865 26.0002 38.7599 26.0934 38.9791 26.264C39.2041 26.4387 39.3646 26.6786 39.4365 26.948C39.4811 27.0748 39.5015 27.2083 39.4968 27.342C39.5041 27.49 39.5041 27.642 39.5041 27.784V30.212C39.5041 30.358 39.5041 30.512 39.4968 30.657C39.5018 30.7908 39.4814 30.9243 39.4365 31.051C39.3646 31.3204 39.2041 31.5603 38.9791 31.735C38.7591 31.9052 38.4857 31.9986 38.2035 32ZM354.268 31.5C353.986 31.4997 353.712 31.4062 353.493 31.235C353.27 31.0591 353.109 30.8197 353.035 30.551C353.004 30.4214 352.985 30.2896 352.977 30.157C352.968 30.021 352.968 29.884 352.968 29.752V28.246C352.968 28.114 352.968 27.977 352.977 27.846C352.985 27.7133 353.004 27.5815 353.035 27.452C353.107 27.1823 353.268 26.9423 353.493 26.768C353.712 26.597 353.986 26.5037 354.268 26.5037C354.55 26.5037 354.824 26.597 355.043 26.768C355.267 26.9435 355.427 27.1831 355.501 27.452C355.535 27.581 355.555 27.713 355.559 27.846C355.568 27.981 355.568 28.118 355.568 28.246V29.752C355.568 29.884 355.568 30.021 355.559 30.157C355.555 30.29 355.535 30.4221 355.501 30.551C355.428 30.8202 355.267 31.0598 355.043 31.235C354.824 31.4062 354.55 31.4997 354.268 31.5ZM31.9653 31.5C31.6823 31.505 31.407 31.4108 31.1908 31.235C30.9661 31.0599 30.8058 30.8202 30.7333 30.551C30.688 30.4244 30.6675 30.2908 30.673 30.157C30.6657 30.008 30.6657 29.857 30.6657 29.715V28.284C30.6657 28.139 30.6657 27.99 30.673 27.842C30.668 27.7082 30.6884 27.5747 30.7333 27.448C30.8053 27.1786 30.9657 26.9387 31.1908 26.764C31.407 26.5882 31.6823 26.494 31.9653 26.499C32.2484 26.4922 32.524 26.5866 32.7389 26.764C32.9639 26.9387 33.1244 27.1786 33.1963 27.448C33.2308 27.577 33.2513 27.709 33.2577 27.842C33.2649 27.99 33.2649 28.142 33.2649 28.284V29.715C33.2649 29.859 33.2649 30.008 33.2577 30.157C33.251 30.29 33.2305 30.422 33.1963 30.551C33.1238 30.8202 32.9635 31.0599 32.7389 31.235C32.524 31.4124 32.2484 31.5068 31.9653 31.5ZM20.0089 31.5C19.7257 31.5059 19.4501 31.4116 19.2344 31.235C19.0098 31.0599 18.8494 30.8202 18.7769 30.551C18.7445 30.4316 18.7247 30.3093 18.7177 30.186V30.159C18.7104 30.009 18.7104 29.859 18.7104 29.715V28.287C18.7104 28.141 18.7104 27.987 18.7177 27.842C18.7275 27.7094 18.7477 27.5777 18.778 27.448C18.8499 27.1786 19.0104 26.9387 19.2354 26.764C19.4511 26.5874 19.7268 26.4931 20.01 26.499C20.2921 26.4993 20.5656 26.5928 20.7846 26.764C21.0092 26.9391 21.1695 27.1788 21.242 27.448C21.284 27.5754 21.3044 27.7084 21.3023 27.842C21.3096 27.99 21.3096 28.142 21.3096 28.284V29.711C21.3096 29.857 21.3096 30.011 21.3023 30.157C21.2935 30.2897 21.2733 30.4215 21.242 30.551C21.1695 30.8202 21.0092 31.0599 20.7846 31.235C20.5653 31.4064 20.2914 31.5 20.0089 31.5ZM359.986 31C359.704 30.9995 359.431 30.906 359.212 30.735C358.987 30.5595 358.827 30.32 358.753 30.051C358.723 29.9214 358.704 29.7896 358.695 29.657C358.687 29.521 358.687 29.384 358.687 29.251V28.751C358.687 28.619 358.687 28.482 358.695 28.345C358.704 28.2124 358.723 28.0807 358.753 27.951C358.826 27.6817 358.987 27.4419 359.212 27.267C359.431 27.0965 359.704 27.0035 359.986 27.0035C360.268 27.0035 360.542 27.0965 360.761 27.267C360.986 27.4419 361.147 27.6817 361.219 27.951C361.253 28.08 361.273 28.2121 361.278 28.345C361.286 28.482 361.286 28.619 361.286 28.751V29.251C361.286 29.384 361.286 29.521 361.278 29.657C361.273 29.79 361.253 29.922 361.219 30.051C361.146 30.3201 360.985 30.5597 360.761 30.735C360.542 30.9062 360.268 30.9998 359.986 31ZM335.554 31C335.272 30.9994 334.998 30.9059 334.779 30.735C334.556 30.5587 334.395 30.3195 334.321 30.051C334.29 29.9214 334.271 29.7896 334.262 29.657C334.254 29.521 334.254 29.385 334.254 29.257V28.75C334.254 28.619 334.254 28.483 334.262 28.35C334.271 28.2174 334.29 28.0857 334.321 27.956C334.393 27.6867 334.554 27.4469 334.779 27.272C334.998 27.1015 335.272 27.0085 335.554 27.0085C335.836 27.0085 336.109 27.1015 336.328 27.272C336.552 27.4475 336.713 27.6871 336.787 27.956C336.821 28.0849 336.841 28.217 336.845 28.35C336.853 28.485 336.853 28.621 336.853 28.75V29.258C336.853 29.391 336.853 29.528 336.845 29.658C336.841 29.791 336.821 29.9232 336.787 30.052C336.714 30.3212 336.553 30.5608 336.328 30.736C336.109 30.9068 335.836 31 335.554 31ZM93.8267 31C93.544 31.0025 93.2696 30.9086 93.0521 30.735C92.827 30.5603 92.6666 30.3204 92.5946 30.051C92.5624 29.9217 92.5422 29.7898 92.5343 29.657C92.527 29.509 92.527 29.36 92.527 29.215V28.784C92.527 28.64 92.527 28.491 92.5343 28.342C92.5422 28.2092 92.5624 28.0774 92.5946 27.948C92.6666 27.6786 92.827 27.4387 93.0521 27.264C93.2716 27.0939 93.5448 27.0008 93.8267 27C94.1087 26.9997 94.3823 27.0929 94.6012 27.264C94.8255 27.4392 94.9854 27.6789 95.0576 27.948C95.0919 28.077 95.1125 28.209 95.119 28.342C95.1263 28.491 95.1263 28.642 95.1263 28.784V29.215C95.1263 29.36 95.1263 29.509 95.119 29.657C95.1125 29.79 95.0919 29.922 95.0576 30.051C94.9854 30.3201 94.8255 30.5598 94.6012 30.735C94.3823 30.9062 94.1088 30.9997 93.8267 31ZM13.7708 30.5C13.4887 30.4986 13.2155 30.4048 12.9963 30.234C12.772 30.0588 12.6121 29.8191 12.5398 29.55C12.5054 29.4214 12.4849 29.2897 12.4785 29.157C12.4785 29.125 12.4785 29.091 12.4785 29.057V28.94C12.4785 28.908 12.4785 28.875 12.4785 28.84C12.4848 28.707 12.5054 28.575 12.5398 28.446C12.6121 28.1769 12.772 27.9372 12.9963 27.762C13.2158 27.5919 13.489 27.4988 13.7708 27.498C14.0529 27.4977 14.3265 27.5909 14.5454 27.762C14.7705 27.9367 14.9309 28.1766 15.0029 28.446C15.0383 28.5683 15.0585 28.6942 15.0632 28.821C15.0632 28.87 15.0632 28.901 15.0632 28.932C15.0632 28.963 15.0632 28.975 15.0632 28.998C15.0632 29.021 15.0632 29.042 15.0632 29.064C15.0632 29.086 15.0632 29.125 15.0632 29.156C15.0571 29.2886 15.0369 29.4203 15.0029 29.549C14.9309 29.8184 14.7705 30.0583 14.5454 30.233C14.3271 30.4055 14.0534 30.4998 13.7708 30.5ZM7.53271 30.5C7.2506 30.4986 6.97741 30.4048 6.75815 30.234C6.53308 30.0593 6.37264 29.8194 6.30069 29.55C6.26662 29.4213 6.24641 29.2896 6.24038 29.157C6.24038 29.125 6.24038 29.091 6.24038 29.057V28.94C6.24038 28.908 6.24038 28.875 6.24038 28.84C6.24619 28.707 6.2664 28.575 6.30069 28.446C6.37264 28.1766 6.53308 27.9367 6.75815 27.762C6.97793 27.5926 7.25109 27.5002 7.53271 27.5C7.81451 27.4995 8.08781 27.5928 8.30624 27.764C8.53131 27.9387 8.69175 28.1786 8.7637 28.448C8.79794 28.577 8.81815 28.709 8.824 28.842C8.824 28.875 8.824 28.908 8.824 28.942V29.061C8.824 29.093 8.824 29.127 8.824 29.161C8.81797 29.2936 8.79776 29.4253 8.7637 29.554C8.69175 29.8234 8.53131 30.0633 8.30624 30.238C8.08691 30.4075 7.81404 30.4999 7.53271 30.5ZM1.2946 30.5C1.0108 30.5002 0.735542 30.4066 0.514834 30.235C0.289768 30.0603 0.129328 29.8204 0.0573721 29.551C0.0235344 29.4223 0.00333075 29.2906 -0.00292969 29.158C-0.00292969 29.124 -0.00292969 29.089 -0.00292969 29.058C-0.00292969 29.027 -0.00292969 29.02 -0.00292969 29.001C-0.00292969 28.982 -0.00292969 28.963 -0.00292969 28.943C-0.00292969 28.923 -0.00292969 28.877 -0.00292969 28.843C0.00332472 28.7101 0.0235279 28.5781 0.0573721 28.449C0.129466 28.1796 0.289879 27.9398 0.514834 27.765C0.735873 27.594 1.01091 27.5005 1.2946 27.5C1.57846 27.4985 1.85406 27.5918 2.07436 27.764C2.29898 27.9391 2.45932 28.1788 2.53182 28.448C2.5655 28.5771 2.5857 28.7091 2.59213 28.842C2.59213 28.875 2.59213 28.908 2.59213 28.942C2.59213 28.976 2.59213 28.981 2.59213 29.001C2.59213 29.021 2.59213 29.04 2.59213 29.06C2.59213 29.08 2.59213 29.126 2.59213 29.16C2.58589 29.2926 2.56569 29.4243 2.53182 29.553C2.45932 29.8222 2.29898 30.0619 2.07436 30.237C1.85405 30.4091 1.57838 30.502 1.2946 30.5ZM378.701 30C378.418 29.9997 378.145 29.9062 377.926 29.735C377.701 29.5598 377.541 29.3201 377.468 29.051C377.467 29.0433 377.467 29.0357 377.468 29.028C377.468 29.0183 377.468 29.0087 377.468 28.999C377.468 28.9903 377.468 28.9817 377.468 28.973C377.467 28.9643 377.467 28.9557 377.468 28.947C377.541 28.6781 377.702 28.4386 377.926 28.263C378.145 28.0925 378.419 27.9995 378.701 27.9995C378.983 27.9995 379.256 28.0925 379.475 28.263C379.7 28.4379 379.861 28.6777 379.934 28.947C379.934 28.9537 379.934 28.9603 379.934 28.967C379.933 28.9776 379.933 28.9884 379.934 28.999C379.962 28.8864 379.979 28.7716 379.985 28.656C379.992 28.556 379.993 28.456 379.993 28.408V29.492C379.993 29.431 379.993 29.384 379.985 29.341C379.979 29.2257 379.962 29.1112 379.934 28.999C379.933 29.0057 379.933 29.0124 379.934 29.019C379.934 29.0293 379.934 29.0397 379.934 29.05C379.861 29.3193 379.7 29.5591 379.475 29.734C379.256 29.9055 378.983 29.9995 378.701 30ZM372.462 30C372.18 29.9992 371.907 29.9057 371.688 29.735C371.463 29.5598 371.303 29.3201 371.229 29.051V29.043C371.229 29.0404 371.229 29.0377 371.229 29.035V29.02C371.23 29.013 371.23 29.006 371.229 28.999C371.23 28.9924 371.23 28.9856 371.229 28.979V28.963C371.23 28.9597 371.23 28.9563 371.229 28.953C371.302 28.6815 371.463 28.4396 371.689 28.263C371.908 28.0924 372.181 27.9994 372.463 27.9994C372.745 27.9994 373.018 28.0924 373.237 28.263C373.462 28.4379 373.623 28.6777 373.696 28.947C373.696 28.9553 373.696 28.9637 373.696 28.972C373.695 28.981 373.695 28.99 373.696 28.999C373.724 28.8865 373.742 28.7717 373.748 28.656C373.748 28.596 373.754 28.532 373.755 28.401V29.433V29.425V29.41C373.755 29.39 373.755 29.375 373.755 29.358V29.341C373.749 29.2257 373.731 29.1112 373.703 28.999C373.702 29.0077 373.702 29.0164 373.703 29.025C373.703 29.0333 373.703 29.0417 373.703 29.05C373.63 29.3193 373.469 29.5591 373.244 29.734C373.024 29.9072 372.747 30.0012 372.462 30ZM366.224 30C365.942 29.9989 365.669 29.9054 365.45 29.735C365.225 29.5601 365.064 29.3203 364.991 29.051V29.044C364.991 29.0394 364.991 29.0347 364.991 29.03C364.992 29.0197 364.992 29.0093 364.991 28.999C364.992 28.9887 364.992 28.9783 364.991 28.968C364.991 28.9654 364.991 28.9626 364.991 28.96V28.953C365.064 28.6817 365.225 28.4399 365.451 28.263C365.67 28.0925 365.943 27.9995 366.225 27.9995C366.507 27.9995 366.781 28.0925 367 28.263C367.224 28.4386 367.385 28.6781 367.458 28.947V28.954C367.458 28.9573 367.458 28.9607 367.458 28.964V28.97C367.458 28.9797 367.458 28.9893 367.458 28.999C367.458 29.0077 367.458 29.0163 367.458 29.025C367.459 29.0307 367.459 29.0364 367.458 29.042C367.387 29.314 367.226 29.5566 367 29.734C366.781 29.9058 366.507 29.9997 366.224 30ZM26.2471 30C25.9643 30.0035 25.6895 29.9095 25.4725 29.735C25.2474 29.5603 25.087 29.3204 25.015 29.051C25.0141 29.0424 25.0141 29.0337 25.015 29.025C25.0157 29.0167 25.0157 29.0083 25.015 29C25.016 28.9957 25.016 28.9913 25.015 28.987C25.0154 28.9735 25.0171 28.9601 25.0202 28.947C25.0927 28.6778 25.2531 28.4381 25.4777 28.263C25.6959 28.0943 25.9671 28.0016 26.2471 28C26.5289 27.9995 26.8022 28.0928 27.0206 28.264C27.2452 28.4391 27.4055 28.6788 27.478 28.948C27.479 28.9577 27.479 28.9674 27.478 28.977C27.4775 28.9847 27.4775 28.9923 27.478 29V29.009C27.478 29.0232 27.4763 29.0372 27.4729 29.051C27.4009 29.3204 27.2405 29.5603 27.0154 29.735C26.8019 29.9112 26.5283 30.0056 26.2471 30ZM364.925 29.483V28.547V28.565V28.603V28.653C364.931 28.7686 364.948 28.8834 364.976 28.996C364.948 29.1083 364.931 29.2228 364.925 29.338C364.925 29.361 364.925 29.383 364.925 29.406V29.412V29.463V29.479V29.483ZM377.401 29.483V28.54C377.402 28.549 377.402 28.558 377.401 28.567V28.608V28.658C377.407 28.7737 377.424 28.8886 377.453 29.001C377.424 29.1131 377.407 29.2277 377.401 29.343C377.401 29.3883 377.399 29.4333 377.396 29.478L377.401 29.483ZM371.163 29.483V28.549C371.164 28.5536 371.164 28.5584 371.163 28.563V28.61V28.661C371.169 28.7766 371.186 28.8915 371.214 29.004C371.186 29.1162 371.169 29.2307 371.163 29.346C371.169 29.389 371.163 29.431 371.163 29.48V29.483ZM367.524 29.483C367.524 29.438 367.524 29.398 367.518 29.347C367.512 29.2316 367.495 29.117 367.466 29.005C367.495 28.8927 367.513 28.7777 367.518 28.662C367.523 28.562 367.525 28.462 367.526 28.396V29.481L367.524 29.483ZM24.9475 29.417V28.512V28.528V28.541C24.9479 28.546 24.9479 28.551 24.9475 28.556V28.563C24.947 28.5677 24.947 28.5724 24.9475 28.577V28.655C24.9423 28.7715 24.96 28.8878 24.9994 28.998C24.9605 29.108 24.9429 29.2239 24.9475 29.34V29.354C24.9475 29.374 24.9475 29.393 24.9475 29.411V29.417Z" fill="white"/>
</svg>
