<svg width="46" height="46" viewBox="0 0 46 46" fill="none" xmlns="http://www.w3.org/2000/svg">
<g id="Frame 3090">
<rect width="46" height="46" rx="8" fill="#0060AF"/>
<g id="logo">
<path id="Fill 1" fill-rule="evenodd" clip-rule="evenodd" d="M12.4206 25.6134C12.4206 25.2602 12.4247 24.316 12.4155 24.1997C12.4235 22.7947 11.3398 21.8036 10.6552 21.8808C10.1815 21.9196 9.78439 22.1017 9.5713 22.6255C9.37363 23.1137 9.55036 23.7631 10.2073 23.9155C10.9096 24.0791 11.3198 24.2152 11.6167 24.4073C11.9804 24.6425 12.2773 25.0918 12.2852 25.614" fill="white"/>
<path id="Fill 6" fill-rule="evenodd" clip-rule="evenodd" d="M12.127 25.614C12.1293 25.1612 11.8612 24.7608 11.5108 24.5456C11.1999 24.3554 10.7827 24.2306 10.1095 24.0696C9.90141 24.0194 9.68374 23.9079 9.61636 23.7659C9.4381 23.9352 9.40573 24.3158 9.43709 24.5383C9.47353 24.7957 9.79266 25.22 10.2732 25.2366C10.5666 25.2477 10.9376 25.1771 11.1155 25.1414C11.4224 25.079 11.908 25.2602 11.9853 25.6134" fill="white"/>
<path id="Fill 8" fill-rule="evenodd" clip-rule="evenodd" d="M12.6689 19.6912C11.8541 19.6912 11.1504 20.1977 11.1528 21.0741C11.1554 21.8111 11.7841 22.2057 12.0086 22.4875C12.3476 22.9122 12.5311 23.4148 12.5501 24.184C12.565 24.7961 12.5643 25.4005 12.5676 25.6147H12.7474C12.7443 25.3906 12.7362 24.7489 12.7454 24.165C12.7576 23.3956 12.9477 22.9122 13.287 22.4875C13.5133 22.2057 14.1415 21.8111 14.1429 21.0741C14.146 20.1977 13.4426 19.6912 12.6286 19.6912" fill="white"/>
<path id="Fill 10" fill-rule="evenodd" clip-rule="evenodd" d="M12.8755 25.6134C12.8755 25.2602 12.8713 24.316 12.8803 24.1997C12.8724 22.7947 13.9554 21.8036 14.6406 21.8808C15.1143 21.9196 15.5109 22.1017 15.7247 22.6255C15.9221 23.1137 15.7444 23.7631 15.0884 23.9155C14.3855 24.0791 13.9759 24.2152 13.6783 24.4073C13.315 24.6425 13.0388 25.0918 13.0304 25.614" fill="white"/>
<path id="Fill 12" fill-rule="evenodd" clip-rule="evenodd" d="M13.1687 25.614C13.1662 25.1612 13.4342 24.7608 13.7836 24.5456C14.0958 24.3554 14.5135 24.2306 15.186 24.0696C15.3945 24.0194 15.612 23.9079 15.6782 23.7659C15.8573 23.9352 15.8896 24.3158 15.8582 24.5383C15.8211 24.7957 15.5027 25.22 15.023 25.2366C14.7298 25.2477 14.3567 25.1771 14.1796 25.1414C13.8738 25.079 13.3869 25.2602 13.3093 25.6134" fill="white"/>
<path id="Fill 14" fill-rule="evenodd" clip-rule="evenodd" d="M13.4202 27.0759L13.316 26.3588L13.5677 26.3228C13.6289 26.315 13.7035 26.3251 13.7333 26.3612C13.7663 26.399 13.7764 26.4302 13.7827 26.4798C13.7923 26.5411 13.7735 26.6119 13.7003 26.6472V26.6494C13.782 26.6494 13.8314 26.7048 13.8458 26.7983C13.8478 26.8181 13.8541 26.8657 13.8478 26.9055C13.8312 27.0002 13.7714 27.0307 13.6702 27.044L13.4202 27.0759ZM13.5823 26.9475C13.6121 26.9434 13.6423 26.9419 13.666 26.9277C13.7023 26.9054 13.699 26.8578 13.6939 26.8223C13.6813 26.7445 13.6598 26.7149 13.5723 26.7271L13.5172 26.7351L13.5521 26.9514L13.5823 26.9475ZM13.5296 26.6163C13.5629 26.6113 13.608 26.6074 13.6268 26.5776C13.6367 26.5577 13.6492 26.5419 13.6409 26.4976C13.6307 26.4452 13.6123 26.4126 13.5415 26.4253L13.4757 26.4352L13.5017 26.619L13.5296 26.6163Z" fill="white"/>
<path id="Fill 16" fill-rule="evenodd" clip-rule="evenodd" d="M14.5105 26.6445C14.5125 26.6578 14.5148 26.6727 14.5156 26.686C14.536 26.8168 14.5105 26.9251 14.3546 26.9549C14.1239 26.9967 14.0798 26.8618 14.0393 26.6727L14.0176 26.5704C13.9859 26.3895 13.9722 26.2526 14.197 26.2103C14.3237 26.1886 14.4075 26.2361 14.4423 26.355C14.4477 26.3728 14.4545 26.3903 14.4571 26.4081L14.3191 26.435C14.3032 26.3903 14.2821 26.3104 14.2201 26.3171C14.1087 26.3298 14.1455 26.4604 14.1569 26.5151L14.1984 26.7114C14.2108 26.7707 14.2356 26.8656 14.3319 26.8473C14.4102 26.8325 14.376 26.7176 14.3691 26.6705" fill="white"/>
<path id="Fill 18" fill-rule="evenodd" clip-rule="evenodd" d="M14.7315 26.8615L14.6838 26.1193L14.869 26.066L15.2575 26.7115L15.1116 26.7526L15.0196 26.5886L14.8576 26.6345L14.8785 26.821L14.7315 26.8615ZM14.8443 26.5148L14.9613 26.4828L14.8059 26.1826L14.8443 26.5148Z" fill="white"/>
<path id="Fill 20" fill-rule="evenodd" clip-rule="evenodd" d="M10.1554 26.3007C10.2134 26.1258 10.2652 25.997 10.4866 26.0542C10.605 26.0854 10.6784 26.1345 10.6749 26.2642C10.6743 26.2931 10.6642 26.3226 10.6576 26.351L10.5199 26.3152C10.5379 26.2435 10.5494 26.1867 10.4558 26.1596C10.3476 26.1316 10.3213 26.2553 10.3064 26.3086L10.2503 26.5031C10.2325 26.5609 10.2112 26.6564 10.3064 26.6811C10.385 26.701 10.4326 26.6283 10.4611 26.522L10.3648 26.4979L10.3981 26.3854L10.6247 26.454L10.5172 26.829L10.4129 26.8023L10.4364 26.723H10.4334C10.3853 26.7879 10.3269 26.7947 10.2756 26.7853C10.049 26.7277 10.0727 26.5881 10.1267 26.4016" fill="white"/>
<path id="Fill 22" fill-rule="evenodd" clip-rule="evenodd" d="M10.9984 26.6173L10.9302 26.9223L10.7766 26.8911L10.9403 26.1788L11.2021 26.2344C11.3554 26.2657 11.4016 26.3299 11.3799 26.4624C11.3676 26.5384 11.3278 26.6202 11.2308 26.6136L11.2297 26.6124C11.3118 26.6394 11.3187 26.6785 11.3044 26.7458C11.2982 26.7746 11.2556 26.9486 11.285 26.9767L11.286 26.9981L11.1271 26.959C11.1205 26.9108 11.143 26.824 11.1519 26.7759C11.1608 26.7334 11.1752 26.6735 11.1294 26.6511C11.0936 26.633 11.0802 26.6339 11.0397 26.6252L10.9984 26.6173ZM11.0246 26.5072L11.128 26.5335C11.1908 26.5421 11.2257 26.5114 11.2381 26.4398C11.2493 26.3742 11.2348 26.3487 11.1784 26.336L11.0676 26.3147L11.0246 26.5072Z" fill="white"/>
<path id="Fill 24" fill-rule="evenodd" clip-rule="evenodd" d="M11.9836 26.3379L12.1355 26.3545L12.07 26.8553C12.0383 27.0141 11.9732 27.0834 11.7879 27.0618C11.5994 27.0392 11.5546 26.9584 11.566 26.7983L11.6319 26.298L11.785 26.3144L11.7193 26.8036C11.7123 26.8567 11.6993 26.9354 11.7995 26.945C11.8884 26.9514 11.9086 26.8958 11.9187 26.8268" fill="white"/>
<path id="Fill 26" fill-rule="evenodd" clip-rule="evenodd" d="M12.3031 27.0893L12.3489 26.3733L12.6406 26.3852C12.7786 26.3916 12.8146 26.4977 12.8104 26.5991C12.8063 26.6607 12.786 26.7295 12.729 26.7668C12.6823 26.7985 12.6222 26.806 12.5666 26.8034L12.4715 26.7985L12.4525 27.0986L12.3031 27.0893ZM12.4757 26.6892L12.553 26.6933C12.6158 26.6954 12.6574 26.672 12.6629 26.5851C12.666 26.5017 12.6324 26.4875 12.5511 26.4841L12.4899 26.4821L12.4757 26.6892Z" fill="white"/>
<path id="Fill 28" fill-rule="evenodd" clip-rule="evenodd" d="M32.8856 20.3833L31.7258 22.3679C31.288 22.0327 30.7535 21.7861 30.0714 21.7861C28.4573 21.7861 27.8016 22.9203 27.8016 23.7192C27.8016 24.3123 28.2135 25.1872 29.6497 25.1872C30.2526 25.1872 31.1096 24.792 31.3562 24.612L30.2092 26.9145C29.6624 27.0173 29.4827 27.0811 29.0199 27.0946C26.4492 27.1669 25.4106 25.6782 25.4113 24.1572C25.413 22.1463 27.3095 19.7009 30.4535 19.7009C30.6461 19.7009 30.8817 19.7638 31.0832 19.8334L31.2869 19.5878" fill="white"/>
<path id="Fill 30" fill-rule="evenodd" clip-rule="evenodd" d="M37.6715 19.6505L38 26.8633H35.5556L35.5543 25.6263H33.8875L33.339 26.8633H30.688L33.4595 21.7127L32.8346 21.7089L34.0219 19.6505H37.6715ZM35.5383 21.8572L34.596 23.9552H35.5668L35.5383 21.8572Z" fill="white"/>
<path id="Fill 32" fill-rule="evenodd" clip-rule="evenodd" d="M23.8681 19.6501C25.0786 19.6565 25.7626 20.2759 25.7626 21.1705C25.7626 21.9954 25.0412 22.7255 24.2493 23.103C25.0646 23.3856 25.1351 24.0792 25.1351 24.5698C25.1351 25.7553 23.8734 26.8629 22.2332 26.8629H18.656L20.0513 21.7841L19.4782 21.781L20.6498 19.6501C20.6498 19.6501 22.8838 19.6437 23.8681 19.6501ZM22.6805 22.5739C22.9309 22.5739 23.373 22.5141 23.4835 22.0573C23.6047 21.5614 23.1898 21.548 22.9907 21.548L22.2796 21.5452L22.0316 22.5739H22.6805ZM21.675 23.8486L21.3476 25.034H22.185C22.5144 25.034 22.9634 24.8798 23.0734 24.4941C23.1821 24.1073 22.8682 23.8486 22.54 23.8486H21.675Z" fill="white"/>
<g id="group">
<path id="Fill 3" fill-rule="evenodd" clip-rule="evenodd" d="M12.701 27.7492C11.4624 27.7492 10.1896 27.4617 8.91842 26.8929L8.88723 26.8785L8.87231 26.8485C8.30187 25.7134 8.00012 24.472 8.00012 23.2573C8.00012 22.0444 8.2895 20.8561 8.86028 19.7225L8.87604 19.6924L8.90783 19.6773C10.0837 19.1522 11.3486 18.8863 12.6688 18.8863C13.8984 18.8863 15.2118 19.1824 16.4661 19.7441L16.4982 19.7576L16.5131 19.7883C17.0944 20.9443 17.401 22.1855 17.401 23.3801C17.401 24.5699 17.1066 25.7594 16.5245 26.9147L16.5093 26.945L16.4769 26.959C15.3189 27.4757 14.0132 27.7492 12.701 27.7492ZM9.03628 26.7372C10.2711 27.2848 11.5027 27.5613 12.7012 27.5613C13.9719 27.5613 15.2356 27.2995 16.3606 26.8031C16.9195 25.6836 17.2027 24.5314 17.2027 23.38C17.2027 22.2237 16.9071 21.0211 16.3478 19.8991C15.1306 19.3596 13.8593 19.0736 12.669 19.0736C11.3909 19.0736 10.1659 19.3291 9.0256 19.8333C8.47821 20.9319 8.1996 22.0832 8.1996 23.2572C8.1996 24.4333 8.48906 25.6365 9.03628 26.7372Z" fill="white"/>
</g>
</g>
</g>
</svg>
