<svg width="24" height="24" viewBox="0 0 24 24" fill="none" xmlns="http://www.w3.org/2000/svg">
<path fill-rule="evenodd" clip-rule="evenodd" d="M6 6C4.89543 6 4 6.89543 4 8V9H20V8C20 6.89543 19.1046 6 18 6H6ZM22 8C22 5.79086 20.2091 4 18 4H6C3.79086 4 2 5.79086 2 8V16C2 18.2091 3.79086 20 6 20H18C20.2091 20 22 18.2091 22 16V8ZM20 11H4V16C4 17.1046 4.89543 18 6 18H18C19.1046 18 20 17.1046 20 16V11ZM6 15C6 14.4477 6.44772 14 7 14H7.01C7.56228 14 8.01 14.4477 8.01 15C8.01 15.5523 7.56228 16 7.01 16H7C6.44772 16 6 15.5523 6 15ZM10 15C10 14.4477 10.4477 14 11 14H13C13.5523 14 14 14.4477 14 15C14 15.5523 13.5523 16 13 16H11C10.4477 16 10 15.5523 10 15Z" fill="#43A1A7"/>
</svg>
