<svg width="28" height="28" viewBox="0 0 28 28" fill="none" xmlns="http://www.w3.org/2000/svg">
<g id="edit-circle">
<path id="Vector (Stroke)" fill-rule="evenodd" clip-rule="evenodd" d="M19.4934 3.39162C20.1716 2.71391 21.0911 2.33319 22.0499 2.33319C23.0092 2.33319 23.9291 2.71424 24.6074 3.39252C25.2857 4.07081 25.6667 4.99075 25.6667 5.94998C25.6667 6.90894 25.2859 7.82864 24.608 8.50687C24.6078 8.50706 24.6082 8.50668 24.608 8.50687L23.1334 9.98668C23.0924 10.0472 23.0452 10.1047 22.9916 10.1583C22.939 10.2109 22.8827 10.2574 22.8234 10.2978L14.8264 18.3235C14.6075 18.5432 14.3101 18.6667 13.9999 18.6667H10.4999C9.85561 18.6667 9.33327 18.1443 9.33327 17.5V14C9.33327 13.6898 9.45676 13.3925 9.67646 13.1736L17.7022 5.17641C17.7426 5.11721 17.7891 5.06091 17.8416 5.00838C17.8952 4.95481 17.9527 4.90755 18.0131 4.86658L19.4925 3.39252C19.4928 3.39222 19.4931 3.39192 19.4934 3.39162ZM18.6797 7.49635L11.6666 14.4845V16.3333H13.5155L20.5036 9.32021L18.6797 7.49635ZM22.1505 7.66735L20.3326 5.84938L21.1424 5.04244C21.3831 4.80174 21.7095 4.66652 22.0499 4.66652C22.3903 4.66652 22.7168 4.80175 22.9575 5.04244C23.1982 5.28314 23.3334 5.60959 23.3334 5.94998C23.3334 6.29038 23.1982 6.61683 22.9575 6.85752L22.1505 7.66735ZM11.6543 8.07912C11.7477 8.71665 11.3066 9.30919 10.6691 9.40261C8.92004 9.6589 7.33266 10.5672 6.22551 11.9453C5.11836 13.3234 4.57338 15.0692 4.69996 16.8323C4.82653 18.5955 5.61529 20.2456 6.90792 21.4514C8.20028 22.6569 9.90069 23.3292 11.668 23.3333C13.3507 23.3327 14.9769 22.7263 16.249 21.6248C17.5216 20.5231 18.3547 18.9998 18.5958 17.334C18.6881 16.6963 19.2799 16.2542 19.9176 16.3465C20.5552 16.4388 20.9974 17.0305 20.9051 17.6682C20.5836 19.8892 19.4729 21.92 17.7763 23.3889C16.0797 24.8578 13.9108 25.6664 11.6667 25.6666L11.6641 25.6666C9.30732 25.6615 7.0397 24.7652 5.31632 23.1576C3.59295 21.55 2.54136 19.3501 2.37261 16.9994C2.20386 14.6487 2.93043 12.3212 4.40651 10.4839C5.88259 8.64663 7.99893 7.43563 10.3308 7.09393C10.9683 7.00051 11.5609 7.4416 11.6543 8.07912Z" fill="#43A1A7"/>
</g>
</svg>
