<svg width="46" height="46" viewBox="0 0 46 46" fill="none" xmlns="http://www.w3.org/2000/svg">
<g id="Frame 3090">
<rect width="46" height="46" rx="8" fill="#05B0EE"/>
<g id="logo">
<path id="Jenius" fill-rule="evenodd" clip-rule="evenodd" d="M33.1878 26.5479C32.2252 28.7204 30.6954 30.3717 28.5836 31.468C27.9456 31.7991 27.2721 32.0376 26.5744 32.2077C26.5271 32.2193 26.4766 32.2169 26.3738 32.2255C26.7479 31.9645 27.0833 31.7393 27.3929 31.4791C29.0906 30.0521 30.1844 28.2638 30.4513 26.0479C30.7498 23.5686 30.1078 21.3224 28.5347 19.3701C27.3758 17.9318 25.9121 16.9005 24.2343 16.1426C23.5682 15.8417 22.9214 15.5066 22.2072 15.3296C21.3566 15.1189 20.493 15.0397 19.6091 15.0462C20.1941 14.5749 20.8404 14.2115 21.5235 13.9145C22.8982 13.3167 24.3358 13.0261 25.8337 13.113C27.5117 13.2103 29.0099 13.8149 30.3235 14.8553C32.2844 16.4084 33.5242 18.4224 33.9529 20.8921C34.2918 22.8447 33.9885 24.741 33.1878 26.5479ZM24.3665 31.6388C24.0345 31.846 23.6717 31.9965 23.3143 32.1564C23.1253 32.2409 22.9527 32.2398 22.7607 32.1893C19.642 31.3695 17.496 29.4148 16.1622 26.5109C16.1486 26.4813 16.1203 26.4475 16.1658 26.3845C17.7691 27.8074 19.6533 28.3303 21.7543 28.063C23.0384 27.8995 24.1916 27.3807 25.1437 26.5016C27.4366 24.3843 27.6624 21.8094 26.718 18.9514C26.9312 19.1242 27.0652 19.3191 27.2052 19.5051C28.0746 20.66 28.5914 21.9617 28.7423 23.3974C29.1346 27.1277 27.4091 29.7386 24.3665 31.6388ZM20.9371 32.7503C18.2683 32.9788 16.1673 31.8657 14.4293 29.9423C13.3186 28.7131 12.599 27.2695 12.3713 25.621C12.0407 23.2264 12.4551 20.997 13.9896 19.0567C14.1886 18.8051 14.4142 18.5757 14.6651 18.3695C13.6867 21.221 13.9153 24.0172 15.0452 26.7481C16.192 29.5202 18.1756 31.494 20.938 32.6691C20.9814 32.6682 21.0375 32.6765 21.0349 32.7218C21.0316 32.7807 20.9732 32.748 20.9371 32.7503ZM17.9218 17.3122C19.6045 16.0774 21.784 16.1683 23.3937 17.4999C24.4942 18.4104 25.2532 19.5545 25.4285 20.9775C25.6824 23.0403 25.2029 24.9019 23.5457 26.2943C21.9236 27.6574 19.4593 27.6053 17.8547 26.2232C16.7448 25.267 16.1479 24.0388 15.9263 22.6079C15.8719 22.2569 15.8342 21.9043 15.8375 21.5454C15.891 19.8179 16.5034 18.3532 17.9218 17.3122ZM35.7951 20.9974C35.2939 18.3195 33.9715 16.128 31.8375 14.4445C29.8446 12.8721 27.5464 12.1277 25.0311 12.0108C24.0148 11.9636 23.0114 12.0729 22.0247 12.3112C19.6991 12.8727 17.662 13.9329 16.0997 15.8005C16.0426 15.8687 15.9785 15.923 15.8937 15.9621C14.3564 16.6694 13.0526 17.6806 12.0113 19.018C10.4289 21.0505 9.73331 23.3436 10.0926 25.9151C10.4342 28.3597 11.6364 30.3001 13.636 31.7302C15.7162 33.218 18.0849 33.7886 20.6005 33.8507C21.3639 33.8695 22.1131 33.7454 22.8573 33.5801C23.1424 33.5167 23.4181 33.3812 23.7221 33.4281C24.2995 33.5173 24.8793 33.5668 25.4928 33.5534C26.0337 33.5714 26.5994 33.5279 27.1602 33.4266C30.5656 32.8111 33.1222 30.9845 34.7773 27.9463C35.9628 25.7699 36.2501 23.4281 35.7951 20.9974Z" fill="white"/>
</g>
</g>
</svg>
