<svg width="132" height="107" viewBox="0 0 132 107" fill="none" xmlns="http://www.w3.org/2000/svg">
<path d="M3.32034 95.3609V11.6379C3.32034 9.57396 4.13524 7.59454 5.58578 6.13511C7.03632 4.67567 9.00366 3.85577 11.055 3.85577H43.1775C44.1932 3.85577 45.1989 4.05707 46.1372 4.44817C47.0756 4.83928 47.9282 5.41253 48.6463 6.13518C49.3644 6.85784 49.9341 7.71574 50.3226 8.6599C50.7112 9.60407 50.9111 10.616 50.9109 11.6379V19.3136C50.9113 21.3773 51.7263 23.3564 53.1768 24.8156C54.6273 26.2747 56.5945 27.0945 58.6456 27.0945H106.864C108.915 27.0945 110.882 27.9142 112.333 29.3734C113.783 30.8325 114.598 32.8116 114.598 34.8754V95.3609C114.598 96.3828 114.398 97.3947 114.01 98.3388C113.621 99.2829 113.051 100.141 112.333 100.863C111.615 101.586 110.762 102.159 109.824 102.55C108.885 102.941 107.879 103.142 106.864 103.142H11.055C9.00388 103.142 7.03672 102.322 5.58622 100.863C4.13571 99.4037 3.32067 97.4246 3.32034 95.3609Z" stroke="#05425C" stroke-width="6" stroke-miterlimit="10"/>
<path d="M108.701 106.312H8.23988C5.57926 106.312 3.67428 103.758 4.44948 101.224L20.8766 47.5203C21.9953 43.8627 25.3896 41.3631 29.2362 41.3631H123.256C129.125 41.3631 133.323 46.9928 131.616 52.5704L117.066 100.15C115.947 103.812 112.548 106.312 108.701 106.312Z" fill="url(#paint0_linear_409_2024)"/>
<path d="M79.5306 59.5526H56.1014C55.4286 59.5526 54.8832 60.1011 54.8832 60.7777C54.8832 61.4542 55.4286 62.0027 56.1014 62.0027H79.5306C80.2034 62.0027 80.7488 61.4542 80.7488 60.7777C80.7488 60.1011 80.2034 59.5526 79.5306 59.5526Z" fill="white"/>
<path d="M81.5768 64.8464H58.1476C57.4748 64.8464 56.9294 65.3948 56.9294 66.0714C56.9294 66.7479 57.4748 67.2964 58.1476 67.2964H81.5768C82.2496 67.2964 82.795 66.7479 82.795 66.0714C82.795 65.3948 82.2496 64.8464 81.5768 64.8464Z" fill="white"/>
<path d="M78.1747 70.1389H54.7454C54.0726 70.1389 53.5273 70.6873 53.5273 71.3639C53.5273 72.0404 54.0726 72.5889 54.7454 72.5889H78.1747C78.8474 72.5889 79.3928 72.0404 79.3928 71.3639C79.3928 70.6873 78.8474 70.1389 78.1747 70.1389Z" fill="white"/>
<path d="M85.1895 75.024H61.7602C61.0875 75.024 60.5421 75.5725 60.5421 76.2491C60.5421 76.9256 61.0875 77.4741 61.7602 77.4741H85.1895C85.8623 77.4741 86.4076 76.9256 86.4076 76.2491C86.4076 75.5725 85.8623 75.024 85.1895 75.024Z" fill="white"/>
<path d="M75.8368 79.908H52.4075C51.7347 79.908 51.1894 80.4564 51.1894 81.133C51.1894 81.8096 51.7347 82.358 52.4075 82.358H75.8368C76.5095 82.358 77.0549 81.8096 77.0549 81.133C77.0549 80.4564 76.5095 79.908 75.8368 79.908Z" fill="white"/>
<path d="M56.9295 77.4778C57.6043 77.4778 58.1513 76.9274 58.1513 76.2484C58.1513 75.5695 57.6043 75.0191 56.9295 75.0191C56.2547 75.0191 55.7076 75.5695 55.7076 76.2484C55.7076 76.9274 56.2547 77.4778 56.9295 77.4778Z" fill="white"/>
<path d="M54.8832 67.3001C55.558 67.3001 56.105 66.7497 56.105 66.0708C56.105 65.3918 55.558 64.8414 54.8832 64.8414C54.2084 64.8414 53.6613 65.3918 53.6613 66.0708C53.6613 66.7497 54.2084 67.3001 54.8832 67.3001Z" fill="white"/>
<defs>
<linearGradient id="paint0_linear_409_2024" x1="14.2226" y1="46.5286" x2="127.865" y2="104.325" gradientUnits="userSpaceOnUse">
<stop stop-color="#43A1A7"/>
<stop offset="0.49" stop-color="#05425C"/>
<stop offset="1" stop-color="#43A1A7"/>
</linearGradient>
</defs>
</svg>
