<svg width="62" height="50" viewBox="0 0 62 50" fill="none" xmlns="http://www.w3.org/2000/svg">
<g id="logos:mastercard" clip-path="url(#clip0_17_7364)">
<path id="Vector" d="M11.2714 49.2565V46.0134C11.2714 44.7699 10.5269 43.9593 9.25086 43.9593C8.61294 43.9593 7.92174 44.1755 7.44318 44.8782C7.07118 44.2836 6.53958 43.9593 5.74205 43.9593C5.21021 43.9593 4.67885 44.1213 4.25333 44.716V44.0674H3.13684V49.2565H4.25333V46.3916C4.25333 45.4729 4.73189 45.0403 5.47637 45.0403C6.22037 45.0403 6.59286 45.5268 6.59286 46.3916V49.2565H7.70934V46.3916C7.70934 45.4729 8.2407 45.0403 8.9319 45.0403C9.67639 45.0403 10.0484 45.5268 10.0484 46.3916V49.2565H11.2714ZM27.8058 44.0674H25.9984V42.4999H24.8819V44.0674H23.8717V45.0942H24.8816V47.4728C24.8816 48.6621 25.3602 49.3646 26.6363 49.3646C27.1149 49.3646 27.6462 49.2026 28.0187 48.9864L27.6995 48.0133C27.3805 48.2294 27.0085 48.2836 26.7426 48.2836C26.211 48.2836 25.9984 47.9593 25.9984 47.4186V45.0942H27.8058V44.0674ZM37.2695 43.9591C36.6316 43.9591 36.2063 44.2836 35.9404 44.716V44.0674H34.8239V49.2565H35.9404V46.3377C35.9404 45.4729 36.3124 44.9863 37.0036 44.9863C37.2163 44.9863 37.4822 45.0405 37.6948 45.0944L38.0138 44.0135C37.8011 43.9593 37.4822 43.9593 37.2695 43.9593V43.9591ZM22.9679 44.4998C22.436 44.1213 21.6918 43.9593 20.8943 43.9593C19.6184 43.9593 18.7679 44.6079 18.7679 45.6349C18.7679 46.4999 19.4058 46.9862 20.5223 47.1485L21.0539 47.2027C21.6388 47.3105 21.9577 47.4728 21.9577 47.7431C21.9577 48.1214 21.5324 48.3917 20.788 48.3917C20.0437 48.3917 19.4588 48.1213 19.0866 47.8512L18.555 48.716C19.1399 49.1484 19.9374 49.3646 20.7347 49.3646C22.2234 49.3646 23.0742 48.6621 23.0742 47.689C23.0742 46.77 22.383 46.2835 21.3196 46.1215L20.788 46.0673C20.3094 46.0131 19.9374 45.9053 19.9374 45.581C19.9374 45.2025 20.3094 44.9863 20.8943 44.9863C21.5324 44.9863 22.1704 45.2565 22.4893 45.4187L22.9679 44.4998ZM52.6346 43.9593C51.9965 43.9593 51.5712 44.2836 51.3053 44.716V44.0674H50.1888V49.2565H51.3053V46.3377C51.3053 45.4729 51.6775 44.9863 52.3685 44.9863C52.5814 44.9863 52.8473 45.0405 53.0599 45.0944L53.3789 44.0135C53.1662 43.9593 52.8473 43.9593 52.6346 43.9593ZM38.386 46.6619C38.386 48.2294 39.4492 49.3646 41.0975 49.3646C41.8418 49.3646 42.3734 49.2025 42.905 48.7702L42.3734 47.8512C41.9481 48.1755 41.5228 48.3375 41.0443 48.3375C40.1404 48.3375 39.5025 47.689 39.5025 46.6619C39.5025 45.6891 40.1404 45.0403 41.0443 44.9863C41.5228 44.9863 41.9481 45.1484 42.3734 45.4729L42.905 44.554C42.3734 44.1213 41.8418 43.9593 41.0975 43.9593C39.4492 43.9593 38.386 45.0944 38.386 46.6619ZM48.7003 46.6619V44.0674H47.5838V44.716C47.2116 44.2297 46.68 43.9593 45.9888 43.9593C44.5533 43.9593 43.4368 45.0944 43.4368 46.6619C43.4368 48.2294 44.5533 49.3646 45.9888 49.3646C46.733 49.3646 47.2649 49.0945 47.5838 48.6079V49.2565H48.7003V46.6619ZM44.6064 46.6619C44.6064 45.743 45.1912 44.9863 46.1481 44.9863C47.052 44.9863 47.6901 45.6891 47.6901 46.6619C47.6901 47.5809 47.052 48.3375 46.1481 48.3375C45.1912 48.2834 44.6064 47.5809 44.6064 46.6619ZM31.2618 43.9593C29.7731 43.9593 28.7097 45.0403 28.7097 46.6619C28.7097 48.2836 29.7729 49.3646 31.3149 49.3646C32.0591 49.3646 32.8036 49.1484 33.3885 48.6621L32.8566 47.8512C32.4314 48.1755 31.8998 48.3917 31.3682 48.3917C30.677 48.3917 29.9857 48.0674 29.8261 47.1482H33.6011V46.7161C33.6544 45.0403 32.6975 43.9593 31.2618 43.9593ZM31.2618 44.9322C31.9528 44.9322 32.4316 45.3648 32.5377 46.1756H29.8794C29.9857 45.4729 30.4643 44.9322 31.2618 44.9322ZM58.9613 46.6619V42.0133H57.8448V44.716C57.4726 44.2297 56.941 43.9593 56.2498 43.9593C54.8143 43.9593 53.6978 45.0944 53.6978 46.6619C53.6978 48.2294 54.8143 49.3646 56.2498 49.3646C56.9943 49.3646 57.5259 49.0945 57.8448 48.6079V49.2565H58.9613V46.6619ZM54.8676 46.6619C54.8676 45.743 55.4522 44.9863 56.4094 44.9863C57.3132 44.9863 57.9511 45.6891 57.9511 46.6619C57.9511 47.5809 57.3132 48.3375 56.4094 48.3375C55.4522 48.2834 54.8676 47.5809 54.8676 46.6619ZM17.5448 46.6619V44.0674H16.4283V44.716C16.0561 44.2297 15.5245 43.9593 14.8333 43.9593C13.3978 43.9593 12.2814 45.0944 12.2814 46.6619C12.2814 48.2294 13.3978 49.3646 14.8333 49.3646C15.5778 49.3646 16.1094 49.0945 16.4283 48.6079V49.2565H17.5448V46.6619ZM13.3978 46.6619C13.3978 45.743 13.9827 44.9863 14.9396 44.9863C15.8435 44.9863 16.4816 45.6891 16.4816 46.6619C16.4816 47.5809 15.8435 48.3375 14.9396 48.3375C13.9827 48.2834 13.3978 47.5809 13.3978 46.6619Z" fill="black"/>
<path id="Vector_2" d="M22.5956 4.66205H39.3428V35.2565H22.5956V4.66205Z" fill="#FF5F00"/>
<path id="Vector_3" d="M23.6591 19.9594C23.6591 13.7433 26.5299 8.22969 30.9426 4.66205C27.6997 2.06751 23.606 0.5 19.1401 0.5C8.55963 0.5 0 9.20255 0 19.9594C0 30.716 8.55963 39.4188 19.1398 39.4188C23.6058 39.4188 27.6995 37.8513 30.9426 35.2565C26.5299 31.743 23.6591 26.1755 23.6591 19.9594Z" fill="#EB001B"/>
<path id="Vector_4" d="M61.9384 19.9594C61.9384 30.716 53.3788 39.4188 42.7986 39.4188C38.3327 39.4188 34.239 37.8513 30.9958 35.2565C35.4618 31.6891 38.2796 26.1755 38.2796 19.9594C38.2796 13.7433 35.4085 8.22969 30.9958 4.66205C34.2387 2.06751 38.3327 0.5 42.7986 0.5C53.3788 0.5 61.9384 9.25672 61.9384 19.9594Z" fill="#F79E1B"/>
</g>
<defs>
<clipPath id="clip0_17_7364">
<rect width="62" height="49" fill="white" transform="translate(0 0.5)"/>
</clipPath>
</defs>
</svg>
