<svg width="29" height="28" viewBox="0 0 29 28" fill="none" xmlns="http://www.w3.org/2000/svg">
<g id="ic:outline-library-add">
<path id="Vector" d="M4.66659 23.3333V23.8333H5.16659H20.9999V25.1667H5.16659C4.15939 25.1667 3.33325 24.3405 3.33325 23.3333V7.50001H4.66659V23.3333ZM23.8333 19.1667H24.3333V18.6667V4.66668V4.16668H23.8333H9.83325H9.33325V4.66668V18.6667V19.1667H9.83325H23.8333ZM17.9999 12.3333H17.4999V12.8333V15.8333H16.1666V12.8333V12.3333H15.6666H12.6666V11H15.6666H16.1666V10.5V7.50001H17.4999V10.5V11H17.9999H20.9999V12.3333H17.9999ZM9.83325 2.83334H23.8333C24.8404 2.83334 25.6666 3.65949 25.6666 4.66668V18.6667C25.6666 19.6739 24.8404 20.5 23.8333 20.5H9.83325C8.82606 20.5 7.99992 19.6739 7.99992 18.6667V4.66668C7.99992 3.65949 8.82606 2.83334 9.83325 2.83334Z" fill="#43A1A7" stroke="#43A1A7"/>
</g>
</svg>
